<svg width="292" height="231" viewBox="0 0 292 231" fill="none" xmlns="http://www.w3.org/2000/svg">
<g clip-path="url(#clip0)">
<path opacity="0.18" d="M153.851 14.0819C141.057 21.1234 128.535 29.4932 115.404 35.5264C96.1168 44.4083 74.8177 48.4699 56.5831 59.5314C4.41754 91.1572 -21.6545 201.065 50.5366 226.334C85.6494 238.625 124.883 219.811 160.985 222.349C177.56 223.514 193.67 225.406 210.34 227.791C226.872 230.149 245.07 231.407 260.065 222.305C276.187 212.52 283.945 192.193 285.476 172.771C287.007 153.349 283.455 133.918 282.684 114.445C282.072 99.4022 283.125 84.1254 279.971 69.4279C273.864 41.054 252.127 17.9675 226.361 6.98926C216.735 2.886 206.418 0.267852 196.024 0.469494C180.986 0.747953 167.27 6.698 153.851 14.0819Z" fill="#529653"/>
<path d="M158.174 86.91C126.839 94.8957 99.1079 91.4101 96.2485 79.1228C96.0495 78.2778 93.591 67.9012 93.6308 67.0114C93.6308 66.9858 94.9749 67.0114 94.9841 66.9698C95.6607 55.0794 118.699 49.8623 147.811 42.4335C173.378 35.9234 195.311 28.1745 204.529 35.4785C206.611 37.1236 209.207 47.9611 209.734 50.2271C212.602 62.5209 189.515 78.9307 158.174 86.91Z" fill="#529653"/>
<path d="M158.174 86.9099C126.839 94.8956 99.1079 91.4101 96.2485 79.1227C96.0495 78.2777 93.3798 66.5857 93.3798 66.5857C94.0564 54.692 118.699 49.8622 147.811 42.4335C173.378 35.9233 197.35 31.4136 206.571 38.7175C206.571 38.7175 209.207 47.9642 209.734 50.2399C212.602 62.5209 189.515 78.9307 158.174 86.9099Z" fill="url(#paint0_linear)"/>
<path opacity="0.29" d="M264.318 107.57H45.8249C39.2915 107.57 33.9951 113.107 33.9951 119.938V187.696C33.9951 194.526 39.2915 200.063 45.8249 200.063H264.318C270.851 200.063 276.148 194.526 276.148 187.696V119.938C276.148 113.107 270.851 107.57 264.318 107.57Z" fill="#529653"/>
<path d="M259.297 102.648H40.8039C34.2705 102.648 28.9742 108.185 28.9742 115.015V182.773C28.9742 189.604 34.2705 195.141 40.8039 195.141H259.297C265.83 195.141 271.127 189.604 271.127 182.773V115.015C271.127 108.185 265.83 102.648 259.297 102.648Z" fill="white"/>
<path d="M86.9567 136.104C86.9567 136.264 86.975 136.424 86.9812 136.578C86.9812 136.418 86.9812 136.258 86.9812 136.104H86.9567Z" fill="#529653"/>
<path d="M86.9812 135.627C86.9812 135.787 86.9567 135.947 86.9567 136.104H86.9903C86.9903 135.944 86.9842 135.787 86.9812 135.627Z" fill="#529653"/>
<path d="M124.059 136.104C124.059 136.264 124.078 136.424 124.081 136.578C124.081 136.418 124.081 136.258 124.081 136.104H124.059Z" fill="#529653"/>
<path d="M124.081 135.627C124.081 135.787 124.059 135.947 124.059 136.104H124.093C124.093 135.944 124.084 135.787 124.081 135.627Z" fill="#529653"/>
<path d="M76.1678 136.104H76.2015C76.2015 135.944 76.1831 135.784 76.177 135.627C76.177 135.787 76.1678 135.944 76.1678 136.104Z" fill="#529653"/>
<path d="M76.177 136.578C76.177 136.418 76.2015 136.258 76.2015 136.104H76.1678C76.1678 136.261 76.177 136.418 76.177 136.578Z" fill="#529653"/>
<path d="M161.199 135.627C161.199 135.787 161.174 135.947 161.174 136.104H161.199C161.199 135.944 161.199 135.787 161.199 135.627Z" fill="#529653"/>
<path d="M113.268 136.104H113.304C113.304 135.941 113.286 135.784 113.28 135.627C113.277 135.787 113.268 135.944 113.268 136.104Z" fill="#529653"/>
<path d="M161.159 136.104C161.159 136.264 161.178 136.424 161.184 136.578C161.184 136.418 161.184 136.258 161.184 136.104H161.159Z" fill="#529653"/>
<path d="M113.28 136.578C113.28 136.418 113.304 136.258 113.304 136.104H113.268C113.268 136.261 113.277 136.418 113.28 136.578Z" fill="#529653"/>
<path d="M150.383 136.578C150.383 136.418 150.404 136.258 150.404 136.104H150.37C150.37 136.261 150.38 136.418 150.383 136.578Z" fill="#529653"/>
<path d="M198.189 136.104C198.188 136.576 198.21 137.047 198.256 137.516C198.28 137.048 198.296 136.578 198.296 136.104H198.189Z" fill="#529653"/>
<path d="M198.244 134.69C198.198 135.16 198.175 135.632 198.176 136.104H198.283C198.296 135.627 198.28 135.157 198.244 134.69Z" fill="#529653"/>
<path d="M150.37 136.104H150.404C150.404 135.944 150.386 135.784 150.383 135.627C150.38 135.787 150.37 135.944 150.37 136.104Z" fill="#529653"/>
<path d="M235.325 136.104C235.325 135.944 235.325 135.784 235.325 135.627C235.325 135.787 235.301 135.947 235.301 136.104H235.325Z" fill="#529653"/>
<path d="M187.436 137.516C187.483 137.047 187.507 136.576 187.507 136.104H187.397C187.397 136.578 187.412 137.048 187.436 137.516Z" fill="#529653"/>
<path d="M187.397 136.104H187.507C187.507 135.632 187.483 135.16 187.436 134.69C187.412 135.157 187.397 135.627 187.397 136.104Z" fill="#529653"/>
<path d="M235.288 136.104C235.288 136.264 235.307 136.424 235.313 136.578C235.313 136.418 235.313 136.258 235.313 136.104H235.288Z" fill="#529653"/>
<path d="M224.499 136.104H224.533C224.533 135.944 224.515 135.784 224.512 135.627C224.509 135.787 224.499 135.944 224.499 136.104Z" fill="#529653"/>
<path d="M224.512 136.578C224.512 136.418 224.533 136.258 224.533 136.104H224.499C224.499 136.261 224.509 136.418 224.512 136.578Z" fill="#529653"/>
<path d="M76.177 135.627C76.0566 132.021 74.5862 128.608 72.0824 126.124C69.5787 123.64 66.2419 122.284 62.7907 122.347C59.3395 122.41 56.0501 123.887 53.6307 126.461C51.2114 129.035 49.8557 132.499 49.8557 136.107C49.8557 139.716 51.2114 143.18 53.6307 145.754C56.0501 148.328 59.3395 149.805 62.7907 149.868C66.2419 149.931 69.5787 148.575 72.0824 146.091C74.5862 143.607 76.0566 140.194 76.177 136.588C76.177 136.428 76.177 136.268 76.177 136.114C76.177 135.96 76.177 135.787 76.177 135.627Z" fill="#529653"/>
<path d="M113.28 135.627C113.117 132.096 111.66 128.766 109.212 126.327C106.764 123.888 103.512 122.528 100.13 122.528C96.7489 122.528 93.497 123.888 91.0489 126.327C88.6007 128.766 87.1442 132.096 86.9812 135.627C86.9812 135.787 86.9812 135.947 86.9812 136.104C86.9812 136.261 86.9812 136.424 86.9812 136.578C87.1442 140.109 88.6007 143.439 91.0489 145.878C93.497 148.317 96.7489 149.677 100.13 149.677C103.512 149.677 106.764 148.317 109.212 145.878C111.66 143.439 113.117 140.109 113.28 136.578C113.28 136.418 113.28 136.258 113.28 136.104C113.28 135.951 113.277 135.787 113.28 135.627Z" fill="#529653"/>
<path d="M187.436 134.69C187.071 131.242 185.473 128.066 182.964 125.797C180.455 123.528 177.218 122.333 173.902 122.452C170.586 122.57 167.435 123.993 165.08 126.436C162.725 128.879 161.339 132.162 161.199 135.627C161.199 135.787 161.199 135.947 161.199 136.104C161.199 136.261 161.199 136.424 161.199 136.578C161.313 140.064 162.688 143.374 165.047 145.841C167.406 148.307 170.572 149.745 173.906 149.864C177.241 149.983 180.494 148.775 183.008 146.482C185.523 144.19 187.111 140.985 187.452 137.516C187.427 137.048 187.412 136.578 187.412 136.104C187.412 135.631 187.412 135.157 187.436 134.69Z" fill="#529653"/>
<path d="M150.383 135.627C150.228 132.09 148.774 128.751 146.325 126.305C143.876 123.859 140.619 122.494 137.232 122.494C133.845 122.494 130.588 123.859 128.138 126.305C125.689 128.751 124.236 132.09 124.081 135.627C124.081 135.787 124.081 135.947 124.081 136.104C124.081 136.261 124.081 136.424 124.081 136.578C124.236 140.115 125.689 143.454 128.138 145.9C130.588 148.346 133.845 149.711 137.232 149.711C140.619 149.711 143.876 148.346 146.325 145.9C148.774 143.454 150.228 140.115 150.383 136.578C150.383 136.418 150.383 136.258 150.383 136.104C150.383 135.951 150.38 135.787 150.383 135.627Z" fill="#529653"/>
<path d="M224.512 135.627C224.428 132.119 223.065 128.776 220.703 126.283C218.34 123.79 215.155 122.335 211.8 122.215C208.445 122.096 205.173 123.32 202.653 125.639C200.134 127.958 198.556 131.195 198.244 134.689C198.268 135.157 198.283 135.627 198.283 136.104C198.283 136.581 198.283 137.064 198.244 137.516C198.579 140.99 200.165 144.201 202.681 146.498C205.196 148.795 208.453 150.007 211.791 149.888C215.129 149.769 218.299 148.327 220.659 145.856C223.019 143.384 224.391 140.068 224.499 136.578C224.499 136.418 224.499 136.258 224.499 136.104C224.499 135.95 224.509 135.787 224.512 135.627Z" fill="#529653"/>
<path d="M248.453 122.332C245.04 122.334 241.762 123.721 239.308 126.202C236.855 128.682 235.419 132.062 235.304 135.627C235.304 135.787 235.304 135.947 235.304 136.104C235.304 136.261 235.304 136.424 235.304 136.578C235.394 139.278 236.243 141.891 237.745 144.09C239.246 146.289 241.333 147.977 243.746 148.945C246.159 149.912 248.791 150.116 251.314 149.53C253.837 148.945 256.139 147.596 257.933 145.651C259.728 143.707 260.935 141.254 261.405 138.597C261.875 135.94 261.587 133.198 260.576 130.711C259.565 128.225 257.876 126.104 255.721 124.614C253.565 123.124 251.037 122.33 248.453 122.332Z" fill="#529653"/>
<path d="M62.6174 136.075V125.193C60.5682 125.2 58.5669 125.841 56.8658 127.036C55.1647 128.23 53.8401 129.925 53.059 131.905C52.2778 133.886 52.0752 136.064 52.4766 138.165C52.878 140.266 53.8655 142.195 55.3145 143.71C56.7636 145.225 58.6092 146.257 60.6187 146.677C62.6282 147.097 64.7116 146.885 66.6061 146.068C68.5006 145.252 70.1214 143.867 71.264 142.088C72.4067 140.31 73.02 138.218 73.0267 136.075H62.6174Z" fill="white"/>
<path d="M99.8488 136.075V125.193C98.0218 125.199 96.228 125.704 94.6442 126.656C93.8569 127.13 93.1315 127.709 92.4858 128.378C91.4252 129.47 90.601 130.786 90.0686 132.24C89.5363 133.693 89.3082 135.248 89.3998 136.802C89.4914 138.355 89.9006 139.869 90.5997 141.243C91.2988 142.617 92.2716 143.818 93.4524 144.765C94.6333 145.712 95.9947 146.384 97.4449 146.734C98.8951 147.085 100.4 147.106 101.859 146.797C103.318 146.487 104.696 145.854 105.901 144.941C107.106 144.027 108.109 142.854 108.844 141.501L99.8488 136.075Z" fill="white"/>
<path d="M137.423 136.075V125.193C134.667 125.21 132.028 126.36 130.075 128.394C128.136 130.438 127.042 133.196 127.029 136.075C127.034 137.986 127.516 139.861 128.428 141.517C129.807 144.011 132.077 145.832 134.738 146.58C137.401 147.324 140.237 146.934 142.625 145.495L137.423 136.075Z" fill="white"/>
<path d="M174.364 136.075V125.193C172.537 125.199 170.743 125.704 169.159 126.656C168.377 127.132 167.657 127.71 167.016 128.378C165.565 129.9 164.578 131.836 164.178 133.944C163.779 136.051 163.985 138.235 164.771 140.22C165.557 142.205 166.887 143.903 168.594 145.099C170.301 146.295 172.309 146.936 174.364 146.942V136.059V136.075Z" fill="white"/>
<path d="M211.571 136.075V125.193C209.516 125.198 207.508 125.839 205.801 127.036C204.094 128.232 202.763 129.929 201.978 131.914C201.192 133.9 200.986 136.084 201.385 138.191C201.785 140.299 202.772 142.235 204.223 143.757L211.571 136.075Z" fill="white"/>
<path d="M248.428 136.075V125.193C245.67 125.2 243.026 126.349 241.075 128.388C239.124 130.427 238.026 133.191 238.019 136.075H248.428Z" fill="white"/>
<path d="M52.2296 171.718H56.6444V172.784C56.2754 173.13 55.9521 173.526 55.683 173.962C55.3629 174.494 55.1146 175.07 54.9452 175.674C54.7879 176.245 54.6913 176.832 54.6574 177.425H53.1481C53.2359 176.623 53.4253 175.838 53.7114 175.088C54.024 174.36 54.4309 173.681 54.9207 173.069H52.2327L52.2296 171.718Z" fill="#529653"/>
<path d="M57.8904 171.718H61.4816V172.979H59.0477L58.9191 173.834C59.0789 173.754 59.2461 173.692 59.4181 173.648C59.5784 173.606 59.7428 173.585 59.908 173.584C60.1508 173.573 60.3933 173.614 60.621 173.703C60.8487 173.792 61.057 173.928 61.2336 174.103C61.4004 174.27 61.5318 174.472 61.6193 174.696C61.7069 174.92 61.7486 175.16 61.7418 175.402C61.7421 175.772 61.6525 176.137 61.4816 176.461C61.3152 176.794 61.0557 177.065 60.7376 177.239C60.3564 177.432 59.9361 177.524 59.513 177.508C59.2038 177.513 58.8953 177.478 58.5946 177.402C58.3596 177.34 58.1382 177.232 57.9424 177.082C57.7701 176.951 57.6218 176.788 57.5046 176.602C57.3803 176.396 57.2864 176.172 57.226 175.936L58.7568 175.76C58.7763 175.981 58.8682 176.188 59.017 176.346C59.1481 176.477 59.3229 176.548 59.5038 176.545C59.603 176.547 59.7014 176.526 59.7915 176.482C59.8817 176.439 59.9613 176.375 60.0243 176.295C60.1764 176.079 60.2492 175.813 60.2294 175.546C60.251 175.28 60.178 175.014 60.0243 174.8C59.9534 174.722 59.8672 174.66 59.7717 174.619C59.6761 174.578 59.5733 174.559 59.4702 174.563C59.3228 174.565 59.1779 174.603 59.0477 174.675C58.9188 174.752 58.8046 174.853 58.7109 174.973L57.422 174.778L57.8904 171.718Z" fill="#529653"/>
<path d="M62.4062 173.117C62.4051 172.855 62.4628 172.596 62.5746 172.361C62.6811 172.126 62.8572 171.933 63.0767 171.811C63.3255 171.677 63.6023 171.611 63.8818 171.619C64.0786 171.608 64.2754 171.639 64.4606 171.709C64.6457 171.779 64.8154 171.888 64.9595 172.029C65.2137 172.329 65.354 172.716 65.354 173.117C65.354 173.518 65.2137 173.905 64.9595 174.205C64.8154 174.345 64.6457 174.454 64.4606 174.524C64.2754 174.595 64.0786 174.626 63.8818 174.615C63.6023 174.622 63.3255 174.556 63.0767 174.423C62.8565 174.301 62.6802 174.108 62.5746 173.872C62.4624 173.638 62.4047 173.379 62.4062 173.117ZM63.4502 173.117C63.4314 173.36 63.4837 173.603 63.6002 173.814C63.6317 173.861 63.674 173.899 63.7233 173.924C63.7725 173.95 63.8271 173.961 63.8818 173.959C63.9364 173.963 63.9909 173.952 64.0399 173.926C64.0889 173.901 64.1305 173.862 64.1604 173.814C64.2769 173.603 64.3292 173.36 64.3105 173.117C64.328 172.873 64.2757 172.629 64.1604 172.416C64.1298 172.369 64.0879 172.332 64.0389 172.308C63.99 172.283 63.9358 172.273 63.8818 172.278C63.8276 172.275 63.7734 172.285 63.7242 172.309C63.675 172.333 63.6324 172.37 63.6002 172.416C63.4828 172.63 63.4305 172.877 63.4502 173.123V173.117ZM67.0322 171.612H67.822L64.6748 177.694H63.9002L67.0322 171.612ZM66.3341 176.189C66.3336 175.928 66.3891 175.67 66.4964 175.434C66.6053 175.199 66.7834 175.006 67.0046 174.883C67.2511 174.749 67.5259 174.682 67.8037 174.688C68.0014 174.677 68.1992 174.708 68.3854 174.778C68.5716 174.848 68.7423 174.957 68.8875 175.098C69.14 175.4 69.2792 175.787 69.2792 176.188C69.2792 176.589 69.14 176.976 68.8875 177.278C68.7423 177.418 68.5716 177.527 68.3854 177.598C68.1992 177.668 68.0014 177.699 67.8037 177.687C67.5257 177.695 67.2506 177.628 67.0046 177.492C66.7829 177.372 66.6046 177.18 66.4964 176.945C66.39 176.711 66.3345 176.455 66.3341 176.196V176.189ZM67.3781 176.189C67.3604 176.433 67.4115 176.677 67.5251 176.89C67.5557 176.937 67.5977 176.974 67.6466 176.998C67.6955 177.023 67.7497 177.033 67.8037 177.028C67.8584 177.032 67.9131 177.021 67.9628 176.997C68.0126 176.973 68.0557 176.936 68.0884 176.89C68.1851 176.67 68.2352 176.431 68.2352 176.189C68.2352 175.947 68.1851 175.708 68.0884 175.488C68.0565 175.441 68.0135 175.404 67.9637 175.379C67.9138 175.354 67.8587 175.344 67.8037 175.348C67.7492 175.343 67.6946 175.355 67.6456 175.38C67.5966 175.405 67.555 175.444 67.5251 175.492C67.4087 175.708 67.3575 175.955 67.3781 176.202V176.189Z" fill="#529653"/>
<path d="M92.3144 172.998L90.8081 173.194C90.7908 173.02 90.7223 172.857 90.6122 172.726C90.5178 172.636 90.3938 172.588 90.2662 172.592C90.1453 172.59 90.0267 172.626 89.9254 172.695C89.8241 172.764 89.7445 172.863 89.6968 172.979C89.5553 173.361 89.4806 173.767 89.4763 174.176C89.6363 174.001 89.825 173.857 90.0335 173.751C90.2414 173.654 90.4673 173.607 90.6948 173.613C90.9239 173.609 91.1512 173.656 91.3621 173.75C91.573 173.843 91.7628 173.982 91.9194 174.157C92.0873 174.339 92.2185 174.555 92.3053 174.792C92.392 175.028 92.4326 175.28 92.4246 175.533C92.4281 175.894 92.3404 176.25 92.1705 176.564C92.0073 176.867 91.761 177.113 91.4633 177.268C91.11 177.44 90.7229 177.522 90.3335 177.508C89.8792 177.529 89.4274 177.428 89.0201 177.217C88.6721 176.998 88.3965 176.673 88.2303 176.285C88.01 175.753 87.9055 175.176 87.9241 174.595C87.9241 173.568 88.1323 172.813 88.5364 172.336C88.7557 172.093 89.0229 171.903 89.3196 171.779C89.6162 171.656 89.935 171.601 90.2539 171.619C90.6031 171.606 90.9516 171.659 91.2826 171.776C91.5192 171.876 91.7292 172.034 91.8949 172.237C92.0858 172.456 92.2289 172.716 92.3144 172.998ZM89.5284 175.533C89.513 175.796 89.5928 176.056 89.7519 176.26C89.8185 176.343 89.9019 176.41 89.9961 176.455C90.0904 176.5 90.1931 176.523 90.2968 176.522C90.3915 176.524 90.4854 176.503 90.5717 176.462C90.6579 176.421 90.7345 176.361 90.7958 176.285C90.9428 176.083 91.0136 175.831 90.9948 175.578C91.0134 175.316 90.9405 175.056 90.7897 174.845C90.7273 174.765 90.6484 174.7 90.5588 174.657C90.4692 174.613 90.3712 174.591 90.2723 174.592C90.1724 174.59 90.0732 174.61 89.9816 174.652C89.8901 174.694 89.8085 174.757 89.7427 174.836C89.5933 175.033 89.5211 175.282 89.5406 175.533H89.5284Z" fill="#529653"/>
<path d="M93.6339 171.718H97.2281V172.979H94.7942L94.6626 173.834C94.8232 173.753 94.9915 173.691 95.1646 173.648C95.3238 173.606 95.4873 173.585 95.6514 173.584C95.8943 173.573 96.1368 173.614 96.3645 173.703C96.5922 173.792 96.8005 173.928 96.9771 174.103C97.1439 174.27 97.2753 174.472 97.3628 174.696C97.4503 174.92 97.4921 175.16 97.4853 175.402C97.4823 175.775 97.3886 176.14 97.2128 176.465C97.0465 176.797 96.7869 177.068 96.4689 177.242C96.0877 177.435 95.6673 177.527 95.2442 177.511C94.9351 177.516 94.6265 177.481 94.3258 177.406C94.0913 177.342 93.8701 177.234 93.6737 177.086C93.5022 176.953 93.3541 176.791 93.2359 176.605C93.114 176.398 93.0202 176.174 92.9573 175.94L94.488 175.764C94.5108 175.984 94.6023 176.189 94.7483 176.349C94.88 176.479 95.0544 176.55 95.2351 176.548C95.3347 176.55 95.4335 176.529 95.5242 176.486C95.6148 176.442 95.6949 176.378 95.7586 176.298C95.9092 176.082 95.9819 175.816 95.9637 175.549C95.9847 175.282 95.9106 175.017 95.7555 174.803C95.6848 174.725 95.5988 174.663 95.5031 174.622C95.4075 174.581 95.3046 174.562 95.2014 174.567C95.054 174.568 94.9091 174.606 94.7789 174.679C94.6511 174.756 94.5379 174.856 94.4452 174.976L93.1563 174.781L93.6339 171.718Z" fill="#529653"/>
<path d="M98.1527 173.117C98.1521 172.855 98.2087 172.597 98.318 172.361C98.4258 172.126 98.6028 171.933 98.8232 171.811C99.0719 171.677 99.3488 171.611 99.6284 171.619C99.8246 171.608 100.021 171.639 100.206 171.709C100.39 171.78 100.559 171.888 100.703 172.029C100.957 172.329 101.097 172.716 101.097 173.117C101.097 173.518 100.957 173.905 100.703 174.205C100.559 174.345 100.39 174.454 100.206 174.524C100.021 174.594 99.8246 174.625 99.6284 174.615C99.3488 174.622 99.0719 174.556 98.8232 174.423C98.6022 174.301 98.4249 174.108 98.318 173.872C98.2083 173.637 98.1518 173.378 98.1527 173.117ZM99.1967 173.117C99.1785 173.359 99.2297 173.602 99.3437 173.814C99.3754 173.862 99.4183 173.9 99.4681 173.925C99.5179 173.95 99.5731 173.962 99.6284 173.959C99.6824 173.962 99.7363 173.951 99.7847 173.925C99.8331 173.9 99.8743 173.862 99.9039 173.814C100.02 173.603 100.073 173.36 100.054 173.117C100.071 172.873 100.019 172.629 99.9039 172.416C99.8735 172.37 99.8321 172.333 99.7837 172.308C99.7354 172.284 99.6818 172.274 99.6284 172.278C99.5737 172.274 99.519 172.285 99.4692 172.309C99.4195 172.333 99.3763 172.37 99.3437 172.416C99.2289 172.631 99.1778 172.877 99.1967 173.123V173.117ZM102.776 171.612H103.559L100.415 177.694H99.6376L102.776 171.612ZM102.078 176.189C102.077 175.928 102.133 175.669 102.243 175.434C102.35 175.198 102.527 175.005 102.748 174.883C102.996 174.749 103.271 174.682 103.55 174.688C103.747 174.677 103.945 174.707 104.131 174.778C104.316 174.848 104.486 174.957 104.631 175.098C104.885 175.399 105.026 175.786 105.026 176.188C105.026 176.589 104.885 176.977 104.631 177.278C104.486 177.418 104.316 177.527 104.131 177.598C103.945 177.668 103.747 177.699 103.55 177.687C103.271 177.695 102.995 177.628 102.748 177.492C102.527 177.373 102.349 177.18 102.243 176.945C102.134 176.711 102.078 176.455 102.078 176.196V176.189ZM103.122 176.189C103.103 176.433 103.155 176.678 103.272 176.89C103.302 176.937 103.344 176.974 103.393 176.998C103.442 177.023 103.496 177.033 103.55 177.028C103.604 177.031 103.659 177.021 103.708 176.997C103.757 176.973 103.8 176.936 103.832 176.89C103.931 176.671 103.982 176.432 103.982 176.189C103.982 175.947 103.931 175.708 103.832 175.488C103.801 175.441 103.759 175.402 103.71 175.378C103.66 175.353 103.605 175.342 103.55 175.348C103.496 175.343 103.441 175.355 103.392 175.38C103.343 175.405 103.302 175.444 103.272 175.492C103.153 175.707 103.1 175.955 103.122 176.202V176.189Z" fill="#529653"/>
<path d="M130.137 172.998L128.63 173.194C128.611 173.02 128.541 172.857 128.431 172.726C128.338 172.637 128.215 172.588 128.088 172.592C127.967 172.59 127.848 172.626 127.746 172.694C127.644 172.763 127.564 172.863 127.516 172.979C127.378 173.362 127.303 173.767 127.296 174.176C127.455 174.001 127.644 173.857 127.853 173.751C128.061 173.655 128.287 173.608 128.514 173.613C128.743 173.61 128.97 173.657 129.181 173.751C129.392 173.844 129.582 173.983 129.739 174.157C129.905 174.341 130.035 174.557 130.121 174.793C130.207 175.029 130.248 175.281 130.241 175.533C130.244 175.894 130.157 176.25 129.987 176.564C129.825 176.869 129.578 177.114 129.279 177.268C128.926 177.44 128.539 177.522 128.15 177.508C127.695 177.528 127.244 177.428 126.836 177.217C126.488 176.999 126.214 176.673 126.049 176.285C125.828 175.753 125.723 175.176 125.743 174.595C125.743 173.568 125.952 172.813 126.356 172.336C126.576 172.093 126.843 171.903 127.14 171.779C127.438 171.655 127.757 171.601 128.076 171.619C128.424 171.606 128.772 171.659 129.102 171.776C129.343 171.875 129.558 172.033 129.729 172.237C129.915 172.458 130.054 172.717 130.137 172.998ZM127.348 175.533C127.332 175.796 127.412 176.056 127.571 176.26C127.638 176.343 127.722 176.41 127.817 176.456C127.912 176.501 128.015 176.524 128.119 176.522C128.213 176.523 128.307 176.503 128.392 176.462C128.478 176.421 128.554 176.361 128.615 176.285C128.763 176.084 128.835 175.832 128.817 175.578C128.835 175.316 128.761 175.055 128.609 174.845C128.547 174.765 128.468 174.7 128.378 174.657C128.288 174.613 128.19 174.591 128.092 174.592C127.992 174.59 127.893 174.611 127.801 174.653C127.71 174.695 127.628 174.757 127.562 174.836C127.409 175.032 127.333 175.281 127.348 175.533Z" fill="#529653"/>
<path d="M130.829 174.544C130.829 173.462 131.015 172.705 131.389 172.272C131.759 171.84 132.329 171.632 133.091 171.632C133.398 171.622 133.704 171.67 133.994 171.776C134.208 171.855 134.404 171.981 134.57 172.144C134.71 172.282 134.829 172.443 134.922 172.621C135.014 172.806 135.083 173.003 135.127 173.206C135.23 173.641 135.281 174.087 135.28 174.535C135.28 175.57 135.113 176.325 134.778 176.801C134.443 177.277 133.868 177.517 133.051 177.521C132.668 177.538 132.287 177.459 131.94 177.29C131.654 177.137 131.414 176.904 131.245 176.618C131.093 176.353 130.989 176.062 130.939 175.757C130.861 175.358 130.824 174.952 130.829 174.544ZM132.329 174.544C132.296 175.047 132.359 175.552 132.515 176.029C132.555 176.145 132.627 176.245 132.722 176.317C132.817 176.388 132.931 176.427 133.048 176.429C133.122 176.43 133.195 176.415 133.263 176.386C133.332 176.357 133.394 176.314 133.446 176.26C133.577 176.111 133.663 175.925 133.694 175.725C133.759 175.349 133.785 174.968 133.774 174.586C133.808 174.07 133.745 173.553 133.59 173.062C133.547 172.947 133.471 172.847 133.372 172.778C133.274 172.708 133.158 172.671 133.039 172.672C132.92 172.67 132.803 172.708 132.706 172.78C132.608 172.852 132.535 172.954 132.497 173.072C132.358 173.548 132.301 174.047 132.329 174.544Z" fill="#529653"/>
<path d="M135.96 173.117C135.959 172.855 136.016 172.597 136.125 172.361C136.233 172.126 136.41 171.933 136.63 171.811C136.879 171.677 137.156 171.611 137.435 171.619C137.632 171.608 137.829 171.639 138.014 171.709C138.199 171.779 138.369 171.888 138.513 172.029C138.765 172.33 138.904 172.716 138.904 173.117C138.904 173.517 138.765 173.904 138.513 174.205C138.369 174.345 138.199 174.454 138.014 174.524C137.829 174.595 137.632 174.626 137.435 174.615C137.156 174.622 136.879 174.556 136.63 174.423C136.409 174.301 136.232 174.108 136.125 173.872C136.015 173.637 135.959 173.378 135.96 173.117ZM137.004 173.117C136.985 173.36 137.037 173.603 137.154 173.814C137.187 173.859 137.229 173.895 137.278 173.92C137.326 173.945 137.38 173.958 137.434 173.958C137.488 173.958 137.541 173.945 137.59 173.92C137.638 173.895 137.681 173.859 137.714 173.814C137.828 173.602 137.879 173.359 137.861 173.117C137.877 172.873 137.826 172.63 137.714 172.416C137.68 172.373 137.637 172.338 137.589 172.314C137.54 172.291 137.487 172.278 137.434 172.278C137.38 172.278 137.328 172.291 137.279 172.314C137.231 172.338 137.188 172.373 137.154 172.416C137.039 172.631 136.99 172.878 137.013 173.123L137.004 173.117ZM140.583 171.612H141.369L138.222 177.694H137.445L140.583 171.612ZM139.888 176.189C139.887 175.928 139.943 175.67 140.05 175.434C140.158 175.199 140.335 175.006 140.555 174.883C140.803 174.75 141.078 174.683 141.357 174.688C141.554 174.677 141.752 174.707 141.938 174.778C142.123 174.848 142.293 174.957 142.438 175.098C142.692 175.399 142.833 175.786 142.833 176.188C142.833 176.589 142.692 176.977 142.438 177.278C142.293 177.418 142.123 177.527 141.938 177.598C141.752 177.668 141.554 177.699 141.357 177.687C141.078 177.694 140.802 177.627 140.555 177.492C140.334 177.372 140.157 177.18 140.05 176.945C139.943 176.711 139.888 176.455 139.888 176.196V176.189ZM140.929 176.189C140.912 176.433 140.964 176.677 141.079 176.89C141.109 176.937 141.151 176.974 141.2 176.998C141.249 177.023 141.303 177.033 141.357 177.028C141.411 177.032 141.466 177.021 141.515 176.997C141.564 176.973 141.607 176.936 141.639 176.89C141.738 176.671 141.789 176.432 141.789 176.189C141.789 175.947 141.738 175.708 141.639 175.488C141.606 175.444 141.563 175.408 141.515 175.383C141.466 175.358 141.413 175.345 141.359 175.345C141.305 175.345 141.251 175.358 141.203 175.383C141.154 175.408 141.112 175.444 141.079 175.488C140.961 175.705 140.908 175.954 140.929 176.202V176.189Z" fill="#529653"/>
<path d="M165.09 171.718H168.685V172.979H166.235L166.104 173.834C166.264 173.755 166.431 173.693 166.603 173.648C166.763 173.607 166.927 173.585 167.092 173.584C167.336 173.574 167.579 173.615 167.807 173.704C168.035 173.793 168.244 173.928 168.421 174.103C168.588 174.27 168.719 174.473 168.806 174.696C168.894 174.92 168.936 175.16 168.929 175.402C168.928 175.773 168.838 176.137 168.666 176.461C168.5 176.793 168.242 177.064 167.925 177.239C167.544 177.431 167.124 177.523 166.701 177.508C166.391 177.514 166.083 177.478 165.782 177.402C165.546 177.34 165.324 177.231 165.127 177.082C164.956 176.949 164.808 176.787 164.689 176.602C164.567 176.395 164.474 176.171 164.411 175.936L165.941 175.76C165.962 175.982 166.055 176.189 166.205 176.346C166.335 176.476 166.509 176.547 166.688 176.545C166.788 176.547 166.887 176.526 166.977 176.482C167.068 176.439 167.148 176.375 167.212 176.295C167.364 176.079 167.437 175.813 167.417 175.546C167.44 175.279 167.365 175.013 167.209 174.8C167.139 174.722 167.053 174.66 166.958 174.619C166.863 174.578 166.761 174.559 166.658 174.563C166.509 174.564 166.363 174.603 166.232 174.675C166.105 174.753 165.992 174.854 165.898 174.973L164.61 174.778L165.09 171.718Z" fill="#529653"/>
<path d="M169.554 174.544C169.554 173.462 169.74 172.705 170.111 172.272C170.483 171.839 171.051 171.625 171.816 171.632C172.122 171.622 172.427 171.67 172.717 171.776C172.931 171.856 173.128 171.981 173.295 172.144C173.434 172.283 173.552 172.444 173.644 172.621C173.737 172.805 173.806 173.002 173.849 173.206C173.955 173.641 174.007 174.087 174.005 174.535C174.005 175.57 173.837 176.325 173.5 176.801C173.164 177.277 172.588 177.517 171.774 177.521C171.391 177.538 171.01 177.459 170.662 177.29C170.377 177.137 170.137 176.905 169.97 176.618C169.819 176.353 169.715 176.062 169.664 175.757C169.588 175.358 169.551 174.951 169.554 174.544ZM171.054 174.544C171.022 175.047 171.085 175.552 171.238 176.029C171.277 176.145 171.35 176.245 171.445 176.316C171.54 176.387 171.653 176.427 171.771 176.429C171.92 176.431 172.065 176.37 172.172 176.26C172.301 176.11 172.387 175.925 172.42 175.725C172.482 175.349 172.509 174.968 172.499 174.586C172.533 174.07 172.471 173.553 172.315 173.062C172.269 172.948 172.192 172.85 172.094 172.781C171.995 172.712 171.88 172.674 171.761 172.672C171.642 172.671 171.526 172.708 171.428 172.78C171.331 172.852 171.258 172.954 171.219 173.072C171.081 173.549 171.025 174.047 171.054 174.544Z" fill="#529653"/>
<path d="M174.67 173.117C174.669 172.855 174.726 172.597 174.835 172.361C174.943 172.125 175.121 171.932 175.343 171.811C175.591 171.677 175.867 171.611 176.145 171.619C176.342 171.608 176.539 171.639 176.724 171.709C176.909 171.779 177.079 171.888 177.223 172.029C177.477 172.329 177.618 172.716 177.618 173.117C177.618 173.518 177.477 173.905 177.223 174.205C177.079 174.345 176.909 174.454 176.724 174.524C176.539 174.595 176.342 174.626 176.145 174.615C175.867 174.622 175.591 174.556 175.343 174.423C175.121 174.302 174.942 174.109 174.835 173.872C174.725 173.637 174.669 173.378 174.67 173.117ZM175.714 173.117C175.695 173.36 175.747 173.603 175.864 173.814C175.894 173.863 175.936 173.902 175.986 173.927C176.035 173.952 176.09 173.963 176.145 173.959C176.2 173.963 176.255 173.952 176.304 173.926C176.353 173.901 176.394 173.862 176.424 173.814C176.538 173.602 176.589 173.359 176.571 173.117C176.587 172.873 176.536 172.63 176.424 172.416C176.393 172.369 176.351 172.332 176.303 172.308C176.254 172.283 176.199 172.273 176.145 172.278C176.091 172.274 176.037 172.285 175.988 172.309C175.938 172.333 175.896 172.37 175.864 172.416C175.751 172.632 175.703 172.878 175.726 173.123L175.714 173.117ZM179.293 171.612H180.08L176.935 177.694H176.17L179.293 171.612ZM178.598 176.189C178.596 175.928 178.651 175.669 178.76 175.434C178.869 175.199 179.045 175.007 179.265 174.883C179.513 174.749 179.789 174.682 180.067 174.688C180.265 174.677 180.462 174.707 180.648 174.778C180.833 174.848 181.004 174.957 181.148 175.098C181.402 175.399 181.543 175.786 181.543 176.188C181.543 176.589 181.402 176.977 181.148 177.278C181.004 177.419 180.833 177.528 180.648 177.598C180.462 177.668 180.265 177.699 180.067 177.687C179.788 177.695 179.512 177.628 179.265 177.492C179.045 177.371 178.868 177.179 178.76 176.945C178.656 176.71 178.605 176.454 178.61 176.196L178.598 176.189ZM179.642 176.189C179.624 176.433 179.675 176.677 179.789 176.89C179.819 176.937 179.861 176.974 179.91 176.998C179.959 177.023 180.013 177.033 180.067 177.028C180.122 177.031 180.177 177.021 180.226 176.997C180.276 176.973 180.319 176.936 180.352 176.89C180.449 176.67 180.499 176.431 180.499 176.189C180.499 175.947 180.449 175.708 180.352 175.488C180.32 175.442 180.277 175.405 180.227 175.38C180.177 175.355 180.122 175.344 180.067 175.348C180.013 175.343 179.958 175.355 179.909 175.38C179.86 175.405 179.819 175.444 179.789 175.492C179.677 175.709 179.63 175.957 179.654 176.202L179.642 176.189Z" fill="#529653"/>
<path d="M202.836 176.346H200.081V175.047L202.836 171.619H204.155V175.12H204.838V176.346H204.155V177.425H202.836V176.346ZM202.836 175.12V173.328L201.379 175.12H202.836Z" fill="#529653"/>
<path d="M205.898 171.718H209.492V172.979H207.058L206.926 173.834C207.086 173.754 207.253 173.692 207.425 173.648C207.586 173.606 207.75 173.585 207.915 173.584C208.158 173.573 208.4 173.614 208.628 173.703C208.856 173.792 209.064 173.928 209.241 174.103C209.408 174.27 209.539 174.472 209.626 174.696C209.714 174.92 209.756 175.16 209.749 175.402C209.749 175.772 209.66 176.137 209.489 176.461C209.322 176.794 209.063 177.065 208.745 177.239C208.364 177.432 207.943 177.524 207.52 177.508C207.211 177.514 206.902 177.478 206.602 177.402C206.366 177.34 206.143 177.232 205.946 177.082C205.775 176.95 205.627 176.788 205.509 176.602C205.386 176.396 205.292 176.171 205.23 175.936L206.761 175.76C206.782 175.981 206.874 176.187 207.021 176.346C207.153 176.475 207.327 176.547 207.508 176.545C207.608 176.547 207.706 176.526 207.797 176.482C207.888 176.439 207.968 176.375 208.031 176.295C208.182 176.078 208.255 175.813 208.237 175.546C208.258 175.279 208.183 175.013 208.028 174.8C207.958 174.722 207.872 174.66 207.776 174.619C207.68 174.578 207.577 174.559 207.474 174.563C207.327 174.565 207.182 174.603 207.052 174.675C206.924 174.752 206.811 174.853 206.718 174.973L205.429 174.778L205.898 171.718Z" fill="#529653"/>
<path d="M210.429 173.117C210.428 172.855 210.484 172.597 210.591 172.361C210.701 172.127 210.879 171.934 211.099 171.811C211.347 171.677 211.623 171.611 211.901 171.619C212.098 171.608 212.295 171.638 212.48 171.708C212.665 171.779 212.835 171.888 212.979 172.029C213.233 172.329 213.373 172.716 213.373 173.117C213.373 173.518 213.233 173.905 212.979 174.205C212.835 174.346 212.665 174.455 212.48 174.525C212.295 174.595 212.098 174.626 211.901 174.615C211.623 174.622 211.347 174.556 211.099 174.423C210.878 174.3 210.7 174.107 210.591 173.872C210.484 173.636 210.428 173.378 210.429 173.117ZM211.473 173.117C211.454 173.359 211.506 173.602 211.62 173.814C211.651 173.861 211.693 173.899 211.743 173.924C211.792 173.95 211.846 173.961 211.901 173.959C211.956 173.963 212.01 173.952 212.059 173.926C212.108 173.901 212.15 173.862 212.18 173.814C212.296 173.603 212.349 173.36 212.33 173.117C212.347 172.873 212.295 172.629 212.18 172.416C212.149 172.369 212.107 172.332 212.058 172.308C212.009 172.283 211.955 172.273 211.901 172.278C211.847 172.275 211.793 172.285 211.744 172.309C211.694 172.333 211.652 172.37 211.62 172.416C211.505 172.631 211.454 172.877 211.473 173.123V173.117ZM215.052 171.612H215.835L212.691 177.694H211.913L215.052 171.612ZM214.353 176.189C214.353 175.928 214.409 175.669 214.519 175.434C214.625 175.199 214.801 175.006 215.021 174.883C215.27 174.749 215.546 174.682 215.826 174.688C216.023 174.677 216.221 174.708 216.406 174.778C216.592 174.849 216.762 174.957 216.907 175.098C217.159 175.4 217.299 175.787 217.299 176.188C217.299 176.589 217.159 176.976 216.907 177.278C216.762 177.418 216.592 177.527 216.406 177.597C216.221 177.668 216.023 177.698 215.826 177.687C215.546 177.695 215.269 177.628 215.021 177.492C214.801 177.372 214.625 177.18 214.519 176.945C214.41 176.711 214.353 176.455 214.353 176.196V176.189ZM215.397 176.189C215.379 176.433 215.431 176.678 215.547 176.89C215.578 176.937 215.62 176.974 215.669 176.998C215.718 177.023 215.772 177.033 215.826 177.028C215.88 177.031 215.934 177.021 215.984 176.997C216.033 176.973 216.076 176.936 216.108 176.89C216.204 176.67 216.255 176.431 216.255 176.189C216.255 175.947 216.204 175.708 216.108 175.488C216.077 175.441 216.035 175.402 215.985 175.378C215.936 175.353 215.881 175.342 215.826 175.348C215.772 175.343 215.717 175.355 215.668 175.38C215.619 175.405 215.577 175.444 215.547 175.492C215.425 175.706 215.37 175.954 215.388 176.202L215.397 176.189Z" fill="#529653"/>
<path d="M248.236 173.117C248.235 172.855 248.291 172.597 248.401 172.361C248.509 172.126 248.686 171.933 248.906 171.811C249.154 171.678 249.43 171.612 249.708 171.619C249.905 171.608 250.103 171.638 250.288 171.709C250.474 171.779 250.644 171.888 250.789 172.029C251.041 172.33 251.18 172.716 251.18 173.117C251.18 173.517 251.041 173.904 250.789 174.205C250.644 174.346 250.474 174.454 250.288 174.525C250.103 174.595 249.905 174.626 249.708 174.615C249.43 174.622 249.154 174.556 248.906 174.423C248.685 174.301 248.508 174.108 248.401 173.872C248.291 173.637 248.235 173.378 248.236 173.117ZM249.28 173.117C249.261 173.359 249.312 173.602 249.426 173.814C249.458 173.861 249.501 173.899 249.55 173.924C249.599 173.949 249.653 173.961 249.708 173.959C249.763 173.963 249.818 173.952 249.868 173.927C249.918 173.902 249.96 173.863 249.99 173.814C250.104 173.602 250.155 173.359 250.137 173.117C250.153 172.873 250.102 172.63 249.99 172.416C249.958 172.37 249.915 172.333 249.866 172.309C249.817 172.285 249.762 172.274 249.708 172.278C249.654 172.275 249.6 172.286 249.551 172.31C249.502 172.334 249.459 172.37 249.426 172.416C249.312 172.631 249.261 172.877 249.28 173.123V173.117ZM252.858 171.612H253.658L250.51 177.694H249.736L252.858 171.612ZM252.16 176.189C252.16 175.928 252.216 175.669 252.326 175.434C252.434 175.199 252.611 175.006 252.831 174.883C253.078 174.749 253.354 174.682 253.633 174.688C253.83 174.677 254.028 174.707 254.213 174.778C254.399 174.848 254.569 174.957 254.714 175.098C254.966 175.4 255.106 175.787 255.106 176.188C255.106 176.589 254.966 176.976 254.714 177.278C254.569 177.418 254.399 177.527 254.213 177.598C254.028 177.668 253.83 177.699 253.633 177.687C253.354 177.695 253.078 177.628 252.831 177.492C252.61 177.372 252.433 177.18 252.326 176.945C252.217 176.711 252.16 176.455 252.16 176.196V176.189ZM253.208 176.189C253.19 176.433 253.241 176.677 253.354 176.89C253.385 176.937 253.427 176.974 253.476 176.998C253.525 177.023 253.579 177.033 253.633 177.028C253.687 177.031 253.741 177.021 253.791 176.997C253.84 176.973 253.883 176.936 253.915 176.89C254.013 176.671 254.065 176.432 254.065 176.189C254.065 175.947 254.013 175.708 253.915 175.488C253.884 175.441 253.842 175.402 253.792 175.378C253.743 175.353 253.688 175.342 253.633 175.348C253.579 175.343 253.524 175.355 253.475 175.38C253.426 175.405 253.384 175.444 253.354 175.492C253.238 175.708 253.187 175.955 253.208 176.202V176.189Z" fill="#529653"/>
<path d="M242.71 177.348H238.224C238.279 176.88 238.439 176.432 238.693 176.042C239.105 175.483 239.6 174.996 240.159 174.599C240.47 174.38 240.752 174.119 240.998 173.824C241.109 173.681 241.173 173.505 241.182 173.322C241.182 173.24 241.167 173.158 241.136 173.083C241.105 173.007 241.059 172.939 241.001 172.883C240.875 172.766 240.711 172.701 240.542 172.701C240.373 172.701 240.209 172.766 240.083 172.883C239.936 173.071 239.85 173.303 239.838 173.546L238.341 173.421C238.375 173.057 238.486 172.705 238.665 172.39C238.829 172.138 239.059 171.941 239.327 171.821C239.705 171.673 240.108 171.607 240.511 171.625C240.927 171.606 241.343 171.67 241.736 171.814C242.017 171.929 242.258 172.13 242.428 172.39C242.593 172.647 242.681 172.951 242.679 173.261C242.677 173.611 242.577 173.952 242.391 174.244C242.105 174.651 241.749 175 241.341 175.271C241.035 175.489 240.842 175.642 240.729 175.729C240.615 175.815 240.508 175.93 240.37 176.071H242.706L242.71 177.348Z" fill="#529653"/>
<path d="M243.952 171.728H247.498V172.973H245.085L244.96 173.818C245.117 173.738 245.283 173.676 245.453 173.632C245.61 173.593 245.771 173.573 245.933 173.571C246.173 173.56 246.413 173.6 246.638 173.688C246.863 173.776 247.069 173.91 247.244 174.083C247.408 174.249 247.537 174.448 247.623 174.668C247.71 174.889 247.751 175.125 247.746 175.364C247.745 175.729 247.656 176.089 247.489 176.41C247.324 176.739 247.068 177.007 246.754 177.178C246.372 177.37 245.952 177.46 245.529 177.441C245.22 177.447 244.911 177.412 244.611 177.335C244.377 177.274 244.158 177.165 243.965 177.015C243.795 176.885 243.649 176.725 243.533 176.541C243.412 176.337 243.32 176.115 243.261 175.882L244.77 175.709C244.791 175.926 244.881 176.129 245.027 176.285C245.095 176.352 245.175 176.404 245.262 176.438C245.35 176.472 245.443 176.487 245.536 176.483C245.629 176.478 245.72 176.454 245.804 176.412C245.888 176.37 245.963 176.31 246.025 176.237C246.174 176.024 246.245 175.762 246.227 175.498C246.249 175.235 246.175 174.972 246.022 174.762C245.952 174.684 245.867 174.622 245.773 174.582C245.678 174.542 245.576 174.523 245.474 174.528C245.329 174.529 245.186 174.568 245.058 174.64C244.932 174.716 244.82 174.814 244.727 174.932L243.453 174.739L243.952 171.728Z" fill="#529653"/>
<path d="M268.304 160.593H37.6812V161.466H268.304V160.593Z" fill="#529653"/>
<path d="M155.232 76.4119C123.897 84.4135 96.7566 80.9888 93.888 68.7015C93.6859 67.8565 93.3002 66.3106 93.3063 66.285C93.9859 54.3913 115.757 39.3641 144.869 31.9354C170.436 25.4284 193.596 26.5551 202.815 33.8558C204.896 35.4977 206.268 37.4629 206.795 39.729C209.66 52.0068 186.576 68.4358 155.232 76.4119Z" fill="#529653"/>
<path d="M202.815 33.8589L151.638 50.1023L93.8267 68.4614C93.6828 67.6068 93.3155 67.1587 93.3063 66.2849C93.3063 66.2593 93.3063 66.3105 93.3063 66.2849C93.8267 57.2398 106.437 46.2391 125.37 38.3943C131.719 35.7739 138.234 33.6158 144.869 31.9353C170.436 25.4284 193.596 26.555 202.815 33.8589Z" fill="url(#paint1_linear)"/>
<path d="M127.938 80.6046L151.641 50.1055L93.8268 68.4613C93.8268 68.4613 94.1513 81.5488 127.938 80.6046Z" fill="url(#paint2_linear)"/>
<path d="M151.638 44.7316L93.3063 63.2571C93.1643 62.3964 93.0896 61.5251 93.0828 60.6517C93.0784 60.6411 93.076 60.6297 93.076 60.6181C93.076 60.6065 93.0784 60.5951 93.0828 60.5845C93.6002 51.5394 106.437 40.8716 125.37 33.0236L151.638 44.7316Z" fill="#529653"/>
<path d="M151.641 50.1054L151.638 44.7314L93.3063 63.2569L151.641 50.1054Z" fill="#529653"/>
<path d="M151.641 50.1054L151.638 44.7314L93.3063 63.2569V66.2847L151.641 50.1054Z" fill="url(#paint3_linear)"/>
<path d="M127.938 80.6045V75.0898L151.638 46.5494L151.641 50.1054L127.938 80.6045Z" fill="url(#paint4_linear)"/>
<path d="M151.638 46.5494L93.3063 66.2848C93.3063 66.2848 102.797 77.4871 127.938 75.0898L151.638 46.5494Z" fill="#529653"/>
<path d="M127.938 75.0898V91.1988C127.938 91.1988 101.857 91.8741 96.7536 80.6366L93.3063 66.2688C93.3063 66.2688 104.649 80.3773 127.938 75.0898Z" fill="#529653"/>
<path d="M127.938 75.0898V91.1988C127.938 91.1988 101.857 91.8741 96.7536 80.6366L93.3063 66.2688C93.3063 66.2688 104.649 80.3773 127.938 75.0898Z" fill="url(#paint5_linear)"/>
<path d="M119.069 48.3002L103.746 24.0935L71.0734 22.1379L71.1224 21.2642L104.211 23.2486L104.328 23.4278L119.767 47.8169L119.069 48.3002Z" fill="#529653"/>
<path d="M68.5109 24.9259C67.792 24.9259 67.0893 24.703 66.4916 24.2854C65.8939 23.8678 65.4282 23.2743 65.1532 22.5799C64.8782 21.8855 64.8064 21.1214 64.9469 20.3843C65.0874 19.6473 65.4338 18.9703 65.9423 18.4391C66.4509 17.9079 67.0987 17.5464 67.8038 17.4001C68.509 17.2539 69.2397 17.3296 69.9037 17.6176C70.5677 17.9057 71.1351 18.3931 71.534 19.0183C71.933 19.6435 72.1456 20.3784 72.145 21.1299C72.1433 22.1367 71.7598 23.1017 71.0786 23.8133C70.3973 24.525 69.4739 24.9251 68.5109 24.9259ZM68.5109 18.2045C67.9576 18.2045 67.4167 18.376 66.9566 18.6973C66.4965 19.0186 66.1378 19.4753 65.926 20.0097C65.7141 20.544 65.6585 21.1321 65.7662 21.6995C65.8739 22.2668 66.1401 22.7881 66.5312 23.1974C66.9222 23.6066 67.4205 23.8855 67.9631 23.9987C68.5057 24.112 69.0683 24.0545 69.5796 23.8336C70.091 23.6126 70.5282 23.2382 70.8361 22.7575C71.1439 22.2768 71.3086 21.7116 71.3092 21.1331C71.3096 20.7485 71.2375 20.3676 71.0971 20.0121C70.9567 19.6567 70.7507 19.3336 70.4908 19.0613C70.231 18.7891 69.9224 18.573 69.5827 18.4255C69.243 18.2779 68.8788 18.2017 68.5109 18.2013V18.2045Z" fill="#529653"/>
<path d="M154.84 33.1547L154.142 32.6714L169.698 8.09987L169.906 8.08706L202.79 6.11865L202.836 6.99243L170.163 8.94804L154.84 33.1547Z" fill="#529653"/>
<path d="M205.402 9.78027C204.683 9.78027 203.98 9.55745 203.383 9.13999C202.785 8.72253 202.319 8.12918 202.044 7.43497C201.769 6.74076 201.697 5.97686 201.837 5.23989C201.978 4.50292 202.324 3.82597 202.832 3.29464C203.34 2.76332 203.988 2.40148 204.693 2.25489C205.398 2.10829 206.128 2.18353 206.792 2.47108C207.456 2.75864 208.024 3.24559 208.423 3.87036C208.822 4.49513 209.036 5.22967 209.036 5.98108C209.035 6.98843 208.652 7.95427 207.97 8.66658C207.289 9.37888 206.365 9.77942 205.402 9.78027ZM205.402 3.05887C204.848 3.05887 204.307 3.23044 203.847 3.55189C203.387 3.87334 203.028 4.33023 202.816 4.86477C202.605 5.39932 202.549 5.98753 202.657 6.555C202.765 7.12247 203.032 7.64373 203.423 8.05286C203.814 8.46198 204.313 8.7406 204.856 8.85348C205.398 8.96635 205.961 8.90842 206.472 8.68701C206.984 8.46559 207.421 8.09063 207.728 7.60955C208.036 7.12847 208.2 6.56287 208.2 5.98428C208.2 5.20812 207.905 4.4637 207.38 3.91457C206.856 3.36544 206.144 3.05652 205.402 3.05567V3.05887Z" fill="#529653"/>
<path d="M245.698 84.4006C244.979 84.4006 244.276 84.1777 243.678 83.7601C243.081 83.3425 242.615 82.749 242.34 82.0546C242.065 81.3602 241.993 80.5961 242.134 79.8591C242.274 79.122 242.62 78.4451 243.129 77.9139C243.638 77.3827 244.285 77.0211 244.99 76.8749C245.696 76.7286 246.426 76.8043 247.09 77.0924C247.754 77.3804 248.322 77.8679 248.721 78.493C249.12 79.1182 249.332 79.8531 249.332 80.6046C249.33 81.6114 248.946 82.5765 248.265 83.2881C247.584 83.9997 246.661 84.3998 245.698 84.4006ZM245.698 77.6792C245.144 77.6792 244.603 77.8508 244.143 78.1722C243.683 78.4937 243.324 78.9506 243.112 79.4851C242.901 80.0197 242.845 80.6079 242.953 81.1754C243.061 81.7428 243.328 82.2641 243.719 82.6732C244.11 83.0823 244.609 83.361 245.152 83.4738C245.694 83.5867 246.257 83.5288 246.768 83.3074C247.28 83.0859 247.717 82.711 248.024 82.2299C248.332 81.7488 248.496 81.1832 248.496 80.6046C248.495 79.829 248.2 79.0854 247.675 78.537C247.151 77.9886 246.439 77.6801 245.698 77.6792Z" fill="#529653"/>
<path d="M242.483 81.04H210.303L210.202 80.9696L178.423 59.4643L178.879 58.7313L210.551 80.1662H242.483V81.04Z" fill="#529653"/>
<path d="M52.5511 90.1107C51.8324 90.1101 51.1301 89.8867 50.5329 89.4689C49.9357 89.051 49.4704 88.4575 49.1958 87.7632C48.9212 87.0689 48.8497 86.3051 48.9903 85.5684C49.1308 84.8316 49.4772 84.155 49.9855 83.624C50.4939 83.093 51.1414 82.7314 51.8463 82.5851C52.5511 82.4388 53.2817 82.5142 53.9455 82.8018C54.6094 83.0895 55.1768 83.5764 55.5759 84.2011C55.9751 84.8258 56.1882 85.5602 56.1882 86.3115C56.1874 87.3194 55.8038 88.2858 55.1218 88.9982C54.4398 89.7106 53.5152 90.1107 52.5511 90.1107ZM52.5511 83.3893C51.9976 83.3893 51.4566 83.5609 50.9964 83.8823C50.5363 84.2038 50.1776 84.6607 49.9658 85.1952C49.754 85.7298 49.6986 86.318 49.8066 86.8855C49.9146 87.4529 50.1811 87.9742 50.5724 88.3833C50.9637 88.7924 51.4623 89.0711 52.0051 89.1839C52.548 89.2968 53.1106 89.2389 53.6219 89.0175C54.1332 88.796 54.5702 88.4211 54.8777 87.94C55.1852 87.4589 55.3493 86.8933 55.3493 86.3147C55.3493 85.5386 55.0546 84.7941 54.5299 84.245C54.0052 83.6959 53.2935 83.387 52.5511 83.3861V83.3893Z" fill="#529653"/>
<path d="M87.9486 86.7499H55.7688V85.8762H87.7006L119.372 64.4413L119.828 65.1742L87.9486 86.7499Z" fill="#529653"/>
</g>
<defs>
<linearGradient id="paint0_linear" x1="124.075" y1="178.379" x2="226.423" y2="-223.996" gradientUnits="userSpaceOnUse">
<stop offset="0.01"/>
<stop offset="0.08" stop-opacity="0.69"/>
<stop offset="0.21" stop-opacity="0.32"/>
<stop offset="1" stop-opacity="0"/>
</linearGradient>
<linearGradient id="paint1_linear" x1="183.998" y1="101.979" x2="104.557" y2="-1.55113" gradientUnits="userSpaceOnUse">
<stop offset="0.01" stop-color="white"/>
<stop offset="1" stop-color="white" stop-opacity="0"/>
</linearGradient>
<linearGradient id="paint2_linear" x1="21741.7" y1="15017.1" x2="24447.2" y2="-6026.59" gradientUnits="userSpaceOnUse">
<stop offset="0.01"/>
<stop offset="0.08" stop-opacity="0.69"/>
<stop offset="0.21" stop-opacity="0.32"/>
<stop offset="1" stop-opacity="0"/>
</linearGradient>
<linearGradient id="paint3_linear" x1="20538.4" y1="3010.25" x2="23438.5" y2="12189.6" gradientUnits="userSpaceOnUse">
<stop offset="0.01"/>
<stop offset="0.08" stop-opacity="0.69"/>
<stop offset="0.21" stop-opacity="0.32"/>
<stop offset="1" stop-opacity="0"/>
</linearGradient>
<linearGradient id="paint4_linear" x1="10194.4" y1="5526.7" x2="12540.2" y2="10566.5" gradientUnits="userSpaceOnUse">
<stop offset="0.01"/>
<stop offset="0.08" stop-opacity="0.69"/>
<stop offset="0.21" stop-opacity="0.32"/>
<stop offset="1" stop-opacity="0"/>
</linearGradient>
<linearGradient id="paint5_linear" x1="8474.98" y1="8700.97" x2="29936.7" y2="9439.77" gradientUnits="userSpaceOnUse">
<stop offset="0.01"/>
<stop offset="0.08" stop-opacity="0.69"/>
<stop offset="0.21" stop-opacity="0.32"/>
<stop offset="1" stop-opacity="0"/>
</linearGradient>
<clipPath id="clip0">
<rect width="292" height="230.08" fill="white" transform="translate(0 0.459961)"/>
</clipPath>
</defs>
</svg>
