<svg width="275" height="234" viewBox="0 0 275 234" fill="none" xmlns="http://www.w3.org/2000/svg">
<path d="M267.119 48.0229C263.398 41.6288 257.405 36.5911 250.483 34.1276C247.5 33.0757 243.915 32.5775 241.48 34.5981C239.045 36.6188 239.893 41.7949 243.04 41.7119C233.326 34.9026 221.614 31.0551 209.794 30.7506C206.838 30.6675 203.473 30.9997 201.612 33.3248C199.724 35.65 201.311 40.2448 204.211 39.7189C195.291 33.9338 183.525 35.7053 173.537 39.3037C170.637 40.3556 167.764 41.5181 164.891 42.6807C161.744 43.954 162.674 48.6872 166.067 48.6596L267.119 48.0229Z" fill="#E0E9F8"/>
<path d="M13.2711 17.0515C9.54975 17.9649 5.77363 14.8371 6.56717 12.2075C7.3607 9.57789 10.9726 7.77869 14.6119 6.69917C22.8483 4.26332 32.6169 4.291 40.8259 6.78221C38.9104 5.78572 39.0746 3.68204 40.5796 2.43644C42.1119 1.19084 44.5473 0.63724 46.9005 0.33276C58.1194 -1.1066 70.4055 2.215 77 8.52605C74.8383 6.97597 76.0149 4.20796 78.6144 3.0454C81.2139 1.88284 84.6617 1.88284 87.7537 2.27036C101.052 3.8758 112.326 8.77517 114.871 17.7435L13.2711 17.0515Z" fill="#E0E9F8"/>
<path opacity="0.8" d="M7.22388 220.797C17.9229 199.981 29.6891 179.719 42.4677 160.15C47.6119 152.261 53.4129 144.068 62.0597 140.441C69.6393 137.258 78.505 138.199 85.9751 141.687C93.4179 145.175 99.602 151.015 104.719 157.52C109.124 163.084 113.831 169.782 120.863 170.364C128.361 171 134.299 164.357 138.923 158.323C154.109 138.532 169.296 118.713 184.483 98.9214C189.517 92.3613 195.729 85.1921 203.91 85.2198C211.244 85.2475 217.182 91.1157 221.751 96.9285C248.567 130.947 259.02 174.875 268.734 217.226L7.22388 220.797Z" fill="#C5D6F1"/>
<path opacity="0.5" d="M255.244 181.353C266.064 181.353 274.836 172.479 274.836 161.534C274.836 150.588 266.064 141.715 255.244 141.715C244.423 141.715 235.652 150.588 235.652 161.534C235.652 172.479 244.423 181.353 255.244 181.353Z" fill="#C3D6F3"/>
<path d="M255.134 216.23C254.833 216.174 254.642 215.897 254.642 215.593V167.623C254.642 167.291 254.888 166.987 255.216 166.987C255.572 166.959 255.846 167.236 255.846 167.596V215.648C255.846 216.008 255.517 216.313 255.134 216.23Z" fill="#99B9EE"/>
<path d="M255.244 171.609C255.08 171.609 254.943 171.554 254.806 171.443C254.56 171.194 254.56 170.807 254.806 170.585L260.169 165.16C260.415 164.911 260.799 164.911 261.017 165.16C261.264 165.409 261.264 165.797 261.017 166.018L255.682 171.443C255.545 171.554 255.408 171.609 255.244 171.609Z" fill="#99B9EE"/>
<path d="M255.244 176.647C255.08 176.647 254.943 176.592 254.806 176.481C254.56 176.232 254.56 175.844 254.806 175.623L260.169 170.198C260.415 169.948 260.799 169.948 261.017 170.198C261.264 170.447 261.264 170.834 261.017 171.056L255.682 176.481C255.545 176.592 255.408 176.647 255.244 176.647Z" fill="#99B9EE"/>
<path opacity="0.5" d="M30.3458 183.733C47.1053 183.733 60.6915 169.989 60.6915 153.036C60.6915 136.082 47.1053 122.339 30.3458 122.339C13.5863 122.339 0 136.082 0 153.036C0 169.989 13.5863 183.733 30.3458 183.733Z" fill="#D1E0F6"/>
<path d="M30.3458 213.683C29.9627 213.683 29.6617 213.378 29.6617 212.991V153.036C29.6617 152.648 29.9627 152.344 30.3458 152.344C30.7288 152.344 31.0298 152.648 31.0298 153.036V212.963C31.0572 213.351 30.7288 213.683 30.3458 213.683Z" fill="#99B9EE"/>
<path d="M30.3458 169.616C30.1816 169.616 29.99 169.561 29.8532 169.422L21.3706 160.842C21.097 160.565 21.097 160.122 21.3706 159.845C21.6443 159.568 22.0821 159.568 22.3557 159.845L30.8383 168.454C31.1119 168.73 31.1119 169.173 30.8383 169.45C30.7015 169.561 30.5373 169.616 30.3458 169.616Z" fill="#99B9EE"/>
<path d="M30.3458 177.616C30.1816 177.616 29.99 177.56 29.8532 177.422L21.3706 168.841C21.097 168.564 21.097 168.121 21.3706 167.845C21.6443 167.568 22.0821 167.568 22.3557 167.845L30.8383 176.425C31.1119 176.702 31.1119 177.145 30.8383 177.422C30.7015 177.533 30.5373 177.616 30.3458 177.616Z" fill="#99B9EE"/>
<path d="M12.2861 210.417H263.672C267.639 210.417 270.841 213.655 270.841 217.669V226.748C270.841 230.761 267.639 234 263.672 234H12.2861C8.31841 234 5.11691 230.761 5.11691 226.748V217.669C5.11691 213.683 8.31841 210.417 12.2861 210.417Z" fill="#E0E9F8"/>
<path fill-rule="evenodd" clip-rule="evenodd" d="M176.266 112.094C194.964 112.094 210.122 96.7601 210.122 77.8452C210.122 58.9303 194.964 43.5968 176.266 43.5968C157.567 43.5968 142.409 58.9303 142.409 77.8452C142.409 96.7601 157.567 112.094 176.266 112.094Z" stroke="#FFBE55"/>
<path d="M170.985 117.435C177.974 120.891 175.933 127.512 175.933 127.512C175.933 127.512 172.028 133.213 165.017 129.756C158.029 126.3 150.596 114.989 150.596 114.989C150.596 114.989 163.997 113.979 170.985 117.435Z" fill="#99B9EE"/>
<path d="M170.985 117.435C177.974 120.891 175.933 127.512 175.933 127.512L150.596 114.989C150.596 114.989 163.997 113.979 170.985 117.435Z" fill="#E0E9F8"/>
<path d="M182.123 154.489C175.134 157.945 177.175 164.566 177.175 164.566C177.175 164.566 181.08 170.266 188.091 166.81C195.08 163.354 202.512 152.043 202.512 152.043C202.512 152.043 189.134 151.033 182.123 154.489Z" fill="#99B9EE"/>
<path d="M182.123 154.489C175.134 157.945 177.175 164.566 177.175 164.566L202.512 152.043C202.512 152.043 189.134 151.033 182.123 154.489Z" fill="#E4ECF8"/>
<path d="M198.297 213.402C189.4 224.646 175.933 219.529 175.933 219.529C175.933 219.529 168.035 207.365 176.931 196.099C185.828 184.832 210.61 175.653 210.61 175.653C210.61 175.653 207.194 202.136 198.297 213.402Z" fill="#E0E9F8"/>
<path d="M198.297 213.402C189.4 224.646 175.933 219.529 175.933 219.529L210.61 175.653C210.61 175.653 207.194 202.136 198.297 213.402Z" fill="#99B9EE"/>
<path d="M154.39 213.402C163.287 224.646 176.754 219.529 176.754 219.529C176.754 219.529 184.652 207.365 175.756 196.099C166.859 184.855 142.077 175.653 142.077 175.653C142.077 175.653 145.493 202.136 154.39 213.402Z" fill="#E0E9F8"/>
<path d="M154.39 213.402C163.287 224.646 176.754 219.529 176.754 219.529L142.077 175.653C142.077 175.653 145.493 202.136 154.39 213.402Z" fill="#99B9EE"/>
<rect x="175.622" y="96.4506" width="1.28681" height="123.348" fill="#99B9EE"/>
<path d="M152.26 46.6714C149.531 46.6714 147.335 48.9157 147.335 51.6538C147.335 48.8933 145.116 46.6714 142.409 46.6714C145.138 46.6714 147.335 44.427 147.335 41.689C147.313 44.427 149.531 46.6714 152.26 46.6714Z" fill="#FFBE55"/>
<path fill-rule="evenodd" clip-rule="evenodd" d="M154.612 46.6714C150.574 46.6714 147.313 49.9706 147.313 54.0553C147.313 49.9706 144.051 46.6714 140.013 46.6714C144.051 46.6714 147.313 43.3723 147.313 39.2876C147.313 43.3723 150.596 46.6714 154.612 46.6714Z" stroke="#FFBE55"/>
<path d="M216.845 87.204C215.269 87.204 213.983 88.5057 213.983 90.0768C213.983 88.4833 212.696 87.204 211.143 87.204C212.718 87.204 213.983 85.9023 213.983 84.3313C213.983 85.9023 215.269 87.204 216.845 87.204Z" fill="#FFBE55"/>
<path fill-rule="evenodd" clip-rule="evenodd" d="M218.198 87.2039C215.868 87.2039 213.983 89.1116 213.983 91.4681C213.983 89.1116 212.097 87.2039 209.767 87.2039C212.097 87.2039 213.983 85.2962 213.983 82.9397C213.983 85.2962 215.868 87.2039 218.198 87.2039Z" stroke="#FFBE55" stroke-width="0.75"/>
<path d="M171.296 100.625H181.125V105.585C181.125 108.323 178.928 110.545 176.221 110.545C173.515 110.545 171.318 108.323 171.318 105.585V100.625H171.296Z" fill="#99B9EE"/>
<path d="M176.266 105.72C191.484 105.72 203.821 93.2398 203.821 77.8451C203.821 62.4504 191.484 49.9706 176.266 49.9706C161.047 49.9706 148.71 62.4504 148.71 77.8451C148.71 93.2398 161.047 105.72 176.266 105.72Z" fill="#FFBE55"/>
<path fill-rule="evenodd" clip-rule="evenodd" d="M176.266 98.7622C187.686 98.7622 196.944 89.3973 196.944 77.8451C196.944 66.2929 187.686 56.928 176.266 56.928C164.846 56.928 155.588 66.2929 155.588 77.8451C155.588 89.3973 164.846 98.7622 176.266 98.7622Z" stroke="#F7F7F7"/>
<path d="M177.286 68.98C179.15 69.3391 180.259 70.753 180.259 72.9973V73.3564L177.686 73.6033V73.1993C177.686 71.9425 177.242 71.359 176.266 71.359C175.467 71.359 174.912 71.8527 174.912 72.8626V73.1993C174.912 74.1868 175.445 75.0172 177.175 76.6107C179.549 78.8326 180.37 80.2689 180.37 82.199V82.6255C180.37 84.8698 179.172 86.2388 177.286 86.5755V88.4383H175.179V86.5755C173.315 86.1715 172.139 84.7576 172.139 82.5581V81.5482L174.713 81.3013V82.3786C174.713 83.6354 175.223 84.2189 176.266 84.2189C177.042 84.2189 177.73 83.7252 177.73 82.7152V82.3337C177.73 81.3462 177.198 80.5158 175.467 78.9223C173.093 76.7004 172.272 75.2641 172.272 73.334V72.9524C172.272 70.7305 173.359 69.3615 175.201 69.0024V67.4089H177.309V68.98H177.286Z" fill="#F7F7F7"/>
<path d="M129.495 148.391L124.898 149.882L124.225 149.558L122.928 148.262L123.056 146.139L125.602 146.074L129.495 148.391Z" fill="#FCD2B1"/>
<path d="M114.182 121.17C114.182 121.17 112.612 139.512 125.586 146.074C125.058 146.706 122.88 147.711 122.88 147.711C122.88 147.711 110.178 139.917 110.626 131.265C111.075 122.612 114.182 121.17 114.182 121.17Z" fill="#EFAE35"/>
<path d="M89.5952 204.794C89.5952 204.794 91.293 212.733 92.5424 216.314C92.6866 216.735 92.158 217.076 91.8537 216.768C89.7554 214.678 86.8402 210.449 85.8791 209.477C84.6778 208.261 82.8358 205.993 82.8358 205.993L87.2406 202.072L90.1398 203.546L89.5952 204.794Z" fill="#0B4870"/>
<path d="M105.356 210.627C105.356 210.627 112.356 214.58 115.848 216.022C116.264 216.201 116.168 216.816 115.72 216.849C112.788 217.059 107.711 216.476 106.365 216.557C104.684 216.671 101.768 216.557 101.768 216.557V210.627L104.78 209.395L105.356 210.627Z" fill="#083751"/>
<path d="M112.452 141.959C112.452 141.959 111.779 177.395 111.395 178.189C111.011 178.966 105.356 210.643 105.356 210.643H101.768C101.768 210.643 102.409 177.54 103.819 176.309C103.819 173.392 102.842 142.25 105.581 140.031C109.585 139.788 112.452 141.959 112.452 141.959Z" fill="#0B4870"/>
<path d="M100.311 138.54C95.1372 142.396 94.0961 160.414 99.3659 174.332C95.9221 180.587 85.6229 205.393 85.6229 205.393L88.6662 207.24C88.6662 207.24 109.665 178.026 108.864 175.013C108.063 171.999 109.585 139.771 109.585 139.771L100.311 138.54Z" fill="#0B4870"/>
<path d="M115.159 117.103C115.271 117.541 115.415 117.978 115.592 118.4C116.713 121.089 118.25 126.647 118.138 127.571C118.01 128.575 114.502 131.994 113.573 134.603C112.644 137.211 112.484 141.959 112.484 141.959L100.343 138.54C100.343 138.54 103.723 130.114 103.851 126.307C103.979 122.499 105.276 114.624 110.066 113.83C113.718 113.215 114.839 115.872 115.159 117.103Z" fill="#FDB32A"/>
<path d="M118.859 101.03C119.083 100.463 119.003 99.8148 118.651 99.3125C116.825 96.8011 113.541 95.3914 110.498 95.9423C107.118 96.558 104.283 99.507 103.771 102.942C103.578 104.271 103.691 105.632 103.418 106.944C103.098 108.483 102.217 109.909 100.984 110.865C99.4459 112.064 97.4598 112.518 95.7459 113.458C94.016 114.414 92.5905 115.84 91.3731 117.411C90.1558 118.983 89.0987 120.749 88.7623 122.726C88.4259 124.703 88.9064 126.89 90.364 128.235C91.293 129.094 92.4944 129.531 93.6797 129.936C96.0502 130.746 98.5329 131.475 101.016 131.2C103.498 130.924 106.013 129.434 106.782 127.02C107.855 123.617 105.212 120.036 105.693 116.504C106.029 114.106 107.759 112.129 109.681 110.687C111.603 109.245 113.782 108.143 115.608 106.588C116.969 105.437 118.266 102.488 118.859 101.03Z" fill="#0B4870"/>
<path d="M115.576 111.206C114.967 112.469 114.406 115.791 114.935 117.201C115.415 118.594 115.239 118.821 115.239 118.821L109.905 114.398L111.139 108.321L115.576 111.206Z" fill="#FCD2B1"/>
<path d="M119.916 106.102C119.916 109.229 119.115 112.421 116.553 112.421C113.99 112.421 110.626 109.229 110.626 106.102C110.626 102.975 112.708 100.431 115.271 100.431C117.834 100.431 119.916 102.975 119.916 106.102Z" fill="#FFE3CA"/>
<path d="M119.644 99.8636C120.557 99.7825 121.182 100.771 120.733 101.565C119.852 103.169 118.282 104.773 114.631 104.319C112.965 104.109 110.306 104.319 110.146 105.454L108.864 102.375C108.864 102.375 109.185 100.431 109.505 100.431C109.825 100.431 112.997 100.431 112.997 100.431L119.644 99.8636Z" fill="#0B4870"/>
<path d="M112.708 103.995C112.228 104.967 111.972 106.701 111.331 107.025C110.53 106.555 109.537 104.109 109.601 104.125C109.665 104.141 110.466 103.655 110.626 103.655C110.786 103.655 112.708 103.995 112.708 103.995Z" fill="#0B4870"/>
<path d="M111.505 108.579C111.957 108.373 112.059 107.611 111.732 106.877C111.406 106.142 110.775 105.713 110.323 105.919C109.872 106.124 109.77 106.886 110.096 107.621C110.423 108.355 111.053 108.784 111.505 108.579Z" fill="#FFE3CA"/>
<path d="M111.091 109.601C111.551 109.601 111.924 109.224 111.924 108.759C111.924 108.293 111.551 107.916 111.091 107.916C110.631 107.916 110.258 108.293 110.258 108.759C110.258 109.224 110.631 109.601 111.091 109.601Z" fill="#FFBE55"/>
<path d="M124.209 166.992L114.262 158.097C113.91 157.789 113.878 157.238 114.182 156.882L120.349 149.185C120.653 148.829 121.198 148.796 121.55 149.104L132.122 158.551C132.474 158.858 132.506 159.409 132.202 159.766L125.41 166.911C125.09 167.268 124.561 167.3 124.209 166.992Z" fill="#99B9EE"/>
<path d="M133.996 169.86L124.898 165.599L127.252 162.844L134.748 167.883L134.861 167.964L133.996 169.86Z" fill="#99B9EE"/>
<path fill-rule="evenodd" clip-rule="evenodd" d="M125.09 148.521C127.573 147.646 129.591 147.889 130.872 149.007C132.17 150.141 132.698 152.167 132.17 154.84L131.064 160.365L119.692 150.433L125.09 148.521ZM131.369 154.694C131.833 152.393 131.465 150.595 130.344 149.623C129.238 148.651 127.477 148.537 125.362 149.299L121.262 150.741L130.536 158.858L131.369 154.694Z" fill="#99B9EE"/>
<path d="M133.996 169.86C133.419 168.775 134.012 168.191 134.748 167.883L134.861 167.964L133.996 169.86Z" fill="#99B9EE"/>
<path d="M107.327 118.254C107.102 125.61 110.05 144.47 115.576 151.907C116.521 151.405 117.546 150.838 117.546 150.838C117.546 150.838 110.498 134.441 112.756 120.668C112.997 118.967 112.756 117.752 112.244 116.909C110.898 114.624 107.407 115.613 107.327 118.254Z" fill="#EFAE35"/>
<path d="M115.576 151.924C115.576 151.924 117.161 155.245 117.546 155.602C117.914 155.958 120.637 157.433 121.406 157.724C122.175 158 120.365 156.331 120.365 156.331C120.365 156.331 121.774 157.238 122.431 157.595C122.527 157.643 122.607 157.53 122.543 157.449C122.047 156.849 120.829 155.877 120.829 155.877C120.829 155.877 122.735 157.027 123.584 157.481C123.68 157.53 123.76 157.416 123.696 157.335C123.088 156.752 121.71 155.666 121.47 155.537C122.479 155.974 123.2 156.396 123.648 156.606C123.712 156.639 123.76 156.558 123.712 156.509C122.831 155.699 119.083 153.009 118.891 152.961C118.122 152.782 117.402 150.935 117.402 150.935L115.576 151.924Z" fill="#FCD2B1"/>
<path d="M124.898 149.882L124.225 149.558L124.145 149.444C124.145 149.444 125.955 147.581 126.419 147.371C126.724 147.241 128.005 147.743 128.822 148.083C129.062 148.181 129.046 148.537 128.79 148.618C127.493 149.039 124.898 149.882 124.898 149.882Z" fill="#FFE4D2"/>
<path d="M136.094 168.872L158.342 179.452" stroke="#CCE9FF" stroke-dasharray="12 14"/>
<path d="M134.861 170.946L149.276 198.783" stroke="#CCE9FF" stroke-dasharray="12 14"/>
<path d="M139.378 173.668L158.342 198.783" stroke="#CCE9FF" stroke-dasharray="12 14"/>
<path d="M143.766 175.499L158.855 187.035" stroke="#CCE9FF" stroke-dasharray="12 14"/>
</svg>
