<svg width="318" height="239" viewBox="0 0 318 239" fill="none" xmlns="http://www.w3.org/2000/svg">
<g clip-path="url(#clip0)">
<path d="M308.85 176.681C305.418 161.642 294.624 152.134 289.763 137.658C285.706 125.559 286.555 112.396 284.196 99.8589C279.638 75.6247 263.107 54.9023 243.09 40.5065C223.074 26.1108 199.599 17.2732 176.277 9.37381C167.055 6.25517 157.681 3.23484 148.128 1.50127C143.293 0.598232 138.391 0.0990759 133.474 0.00896966C107.97 -0.321659 84.6388 12.9571 67.5265 31.1328C59.8148 39.3538 49.5743 50.9079 46.1786 61.908C42.2557 74.606 45.9105 89.1715 42.2111 102.307C39.2175 112.923 32.3816 121.966 26.2962 131.135C12.5885 151.687 1.51692 177.235 9.54137 200.602C16.5293 220.967 37.1265 234.523 58.4119 237.946C79.6972 241.368 101.42 236.078 121.491 228.304C134.608 223.228 147.789 216.964 161.854 217.027C174.918 217.08 187.241 222.585 199.689 226.543C221.772 233.531 245.086 235.757 268.093 233.075C277.261 231.994 286.644 230.01 294.195 224.694C308.671 214.444 312.799 193.99 308.85 176.681Z" fill="#F2F2F2"/>
<path d="M124.475 199.441C104.567 201.802 84.9464 206.157 65.9092 212.442C63.7467 213.157 61.3162 214.167 60.637 216.338C81.2739 218.968 102.125 219.483 122.867 217.875C136.485 216.821 150.023 214.855 163.641 213.872C192.335 211.799 221.26 214.105 249.864 210.995C251.285 210.942 252.676 210.566 253.93 209.896C254.543 209.549 255.028 209.014 255.314 208.371C255.601 207.727 255.673 207.009 255.52 206.321C255.052 205.311 254.209 204.523 253.17 204.123C248.363 201.737 242.769 201.693 237.398 201.764C201.172 202.255 164.74 206.071 128.845 201.156" fill="url(#paint0_linear)"/>
<path d="M180.959 102.781C165.768 95.7484 149.853 88.8409 133.134 89.2788C126.986 89.4396 120.883 90.6013 114.726 90.637C104.458 90.6828 94.4158 87.624 85.9167 81.8619C81.3237 97.6964 76.7723 113.543 72.2627 129.401C71.0206 133.771 69.3674 138.248 68.5453 142.716C67.187 150.106 83.9062 153.796 89.2856 154.475C95.4871 155.262 101.796 154.654 108.051 154.859C113.372 154.902 118.618 156.123 123.412 158.434C128.076 160.811 133.509 162.124 138.478 163.992C150.711 168.576 163.615 172.517 176.625 171.346C189.636 170.176 202.843 162.812 207.463 150.597C208.562 147.693 209.152 144.619 210.144 141.661C212.699 134.2 220.813 124.468 212.271 118.312C203.174 111.69 191.146 107.481 180.959 102.781Z" fill="#529653"/>
<path d="M169.405 104.184C162.909 101.226 156.43 98.0895 149.487 96.4185C132.857 92.442 115.003 97.2138 98.4717 92.8441C97.6913 94.6021 96.2449 95.9783 94.4504 96.6703C92.6558 97.3623 90.6599 97.3136 88.9013 96.5347H88.8566C88.0971 99.5103 88.1149 103.12 87.5252 106.257C86.7865 110.141 85.9137 113.998 84.907 117.829C82.9291 125.367 80.4514 132.764 77.4901 139.972C78.9735 139.82 80.2245 141.268 80.4211 142.751C80.4945 144.245 80.187 145.734 79.5275 147.076C79.4292 147.309 84.3082 148.774 84.7729 148.863C86.5537 149.078 88.3537 149.078 90.1345 148.863C94.0127 148.551 97.7836 147.434 101.635 146.897C116.174 144.878 130.382 151.169 144.581 154.94C149.348 156.193 154.185 157.163 159.066 157.844C162.569 158.335 166.161 158.666 169.61 157.844C173.06 157.022 176.411 155.065 179.44 152.947C185.239 148.872 190.628 144.011 194.408 138.051C197.419 133.279 203.129 120.608 197.499 115.961C194.14 113.191 187.786 112.03 183.738 110.359C178.907 108.393 174.129 106.334 169.405 104.184Z" fill="url(#paint1_linear)"/>
<path d="M164.982 106.588C148.897 102.012 132.08 97.6516 115.638 100.717C109.579 101.843 103.735 103.943 97.6674 104.943C87.5276 106.59 77.1268 105.132 67.8304 100.761C65.7632 117.126 63.7437 133.491 61.7718 149.855C61.2268 154.368 60.2974 159.041 60.1813 163.59C59.9936 171.096 77.0791 172.132 82.521 171.963C88.7762 171.766 94.8883 170.176 101.09 169.416C106.352 168.594 111.732 168.96 116.835 170.488C121.812 172.097 127.388 172.552 132.589 173.616C145.385 176.234 158.744 178.084 171.416 174.929C184.087 171.775 195.971 162.419 198.634 149.614C199.26 146.576 199.367 143.448 199.903 140.392C201.27 132.618 207.767 121.743 198.357 116.998C188.278 111.949 175.776 109.679 164.982 106.588Z" fill="#529653"/>
<path d="M153.785 109.796C146.904 107.883 140.015 105.801 132.902 105.238C115.852 103.907 98.9453 111.413 81.967 109.706C81.7205 110.632 81.2932 111.5 80.7099 112.26C80.1266 113.02 79.3987 113.657 78.5682 114.135C77.7376 114.612 76.8208 114.921 75.8705 115.043C74.9203 115.164 73.9553 115.097 73.0311 114.844C72.7452 117.909 73.326 121.466 73.2277 124.674C73.1026 128.624 72.8435 132.582 72.4503 136.514C71.6763 144.268 70.3836 151.961 68.581 159.542C70.0286 159.158 71.4941 160.435 71.9141 161.829C72.2102 163.298 72.1271 164.817 71.6728 166.244C71.6103 166.494 76.6591 167.182 77.1327 167.182C78.9125 167.128 80.6795 166.861 82.3959 166.387C86.1848 165.493 89.7323 163.786 93.4497 162.652C107.497 158.389 122.509 162.383 137.111 163.849C142.015 164.342 146.944 164.545 151.873 164.457C155.447 164.385 159.021 164.162 162.292 162.848C165.714 161.49 168.547 159.041 171.228 156.477C176.312 151.544 180.888 145.941 183.685 139.427C185.91 134.253 189.582 120.84 183.291 117.087C179.538 114.871 173.078 114.719 168.824 113.701C163.784 112.485 158.771 111.184 153.785 109.796Z" fill="url(#paint2_linear)"/>
<path d="M101.992 161.66C101.637 160.026 101.374 158.373 101.206 156.709C101.233 155.065 101.403 153.427 101.715 151.812C102.538 145.834 101.715 139.767 101.358 133.735C101.001 127.703 100.965 121.475 103.235 115.863C104.076 113.537 105.546 111.49 107.479 109.947C109.785 108.268 112.707 107.722 115.521 107.392C119.096 106.972 122.849 106.82 126.245 108.107C125.373 108.565 124.606 109.199 123.991 109.967C123.376 110.736 122.926 111.624 122.67 112.575C122.184 114.494 122.003 116.479 122.134 118.454C122.313 124.788 123.045 131.094 124.323 137.3C125.583 143.475 127.335 149.998 125.217 155.932C124.028 159.238 121.732 161.999 119.989 165.055C118.837 167.084 117.416 169.586 115.075 169.523C114.345 169.442 113.628 169.274 112.939 169.023C111.193 168.674 109.395 168.674 107.649 169.023C106.487 169.184 103.976 170.033 102.922 169.407C101.099 168.406 102.269 163.456 101.992 161.66Z" fill="url(#paint3_linear)"/>
<path d="M227.605 107.731H123.993C116.363 107.731 110.178 113.917 110.178 121.546V195.009C110.178 202.638 116.363 208.823 123.993 208.823H227.605C235.234 208.823 241.419 202.638 241.419 195.009V121.546C241.419 113.917 235.234 107.731 227.605 107.731Z" fill="#529653"/>
<path d="M227.605 107.731H123.993C116.363 107.731 110.178 113.917 110.178 121.546V195.009C110.178 202.638 116.363 208.823 123.993 208.823H227.605C235.234 208.823 241.419 202.638 241.419 195.009V121.546C241.419 113.917 235.234 107.731 227.605 107.731Z" fill="url(#paint4_linear)"/>
<path d="M241.419 130.339H110.178V188.566H241.419V130.339Z" fill="url(#paint5_linear)"/>
<path d="M238.873 152.643H187.974C182.634 152.643 178.305 156.972 178.305 162.312V169.756C178.305 175.095 182.634 179.424 187.974 179.424H238.873C244.213 179.424 248.541 175.095 248.541 169.756V162.312C248.541 156.972 244.213 152.643 238.873 152.643Z" fill="url(#paint6_linear)"/>
<path d="M240.303 145.101H189.404C184.064 145.101 179.735 149.43 179.735 154.77V162.214C179.735 167.554 184.064 171.882 189.404 171.882H240.303C245.642 171.882 249.971 167.554 249.971 162.214V154.77C249.971 149.43 245.642 145.101 240.303 145.101Z" fill="#529653"/>
<path d="M193.076 167.182C197.997 167.182 201.985 163.193 201.985 158.273C201.985 153.353 197.997 149.364 193.076 149.364C188.156 149.364 184.167 153.353 184.167 158.273C184.167 163.193 188.156 167.182 193.076 167.182Z" fill="url(#paint7_linear)"/>
<path d="M82.4228 209.967C93.063 209.967 101.689 201.342 101.689 190.701C101.689 180.061 93.063 171.436 82.4228 171.436C71.7825 171.436 63.1569 180.061 63.1569 190.701C63.1569 201.342 71.7825 209.967 82.4228 209.967Z" fill="#F8C244"/>
<path d="M82.4317 207.135C91.5025 207.135 98.8559 199.781 98.8559 190.71C98.8559 181.64 91.5025 174.286 82.4317 174.286C73.3608 174.286 66.0075 181.64 66.0075 190.71C66.0075 199.781 73.3608 207.135 82.4317 207.135Z" fill="#E8A825"/>
<path d="M80.9216 201.049V198.413C79.5131 198.406 78.134 198.01 76.9362 197.269L77.5617 195.482C78.6709 196.204 79.9644 196.592 81.2879 196.599C83.1556 196.599 84.3976 195.536 84.3976 194.052C84.3976 192.569 83.3879 191.729 81.4577 190.943C78.777 189.897 77.1506 188.7 77.1506 186.475C77.1506 184.25 78.6876 182.668 81.0914 182.275V179.648H82.7088V182.168C83.8943 182.18 85.0581 182.487 86.0955 183.061L85.4521 184.848C84.4624 184.253 83.3273 183.944 82.1726 183.955C80.162 183.955 79.4114 185.161 79.4114 186.198C79.4114 187.556 80.3765 188.226 82.6373 189.173C85.318 190.263 86.6763 191.622 86.6763 193.936C86.6676 195.058 86.2421 196.137 85.4824 196.963C84.7227 197.788 83.6832 198.302 82.5658 198.404V201.085L80.9216 201.049Z" fill="#F8C244"/>
<path d="M84.7282 182.838C83.3053 186.339 83.1039 190.217 84.1563 193.847C84.9694 196.617 86.4885 199.137 87.3106 201.889C87.5794 202.692 87.6946 203.537 87.6502 204.382C87.4804 206.071 86.283 207.456 85.1481 208.716C86.6762 209.029 88.2221 208.323 89.6161 207.563C91.7791 206.504 93.6804 204.978 95.1832 203.096C96.2164 201.563 96.9613 199.855 97.3814 198.056C98.8647 192.512 98.8647 186.675 97.3814 181.131C96.8185 179.067 94.6023 173.375 91.6714 174.706C88.7404 176.038 85.9345 179.862 84.7282 182.838Z" fill="url(#paint8_linear)"/>
<path d="M105.951 210.494C116.591 210.494 125.217 201.869 125.217 191.229C125.217 180.588 116.591 171.963 105.951 171.963C95.3108 171.963 86.6852 180.588 86.6852 191.229C86.6852 201.869 95.3108 210.494 105.951 210.494Z" fill="#F8C244"/>
<path d="M105.951 207.653C115.022 207.653 122.375 200.299 122.375 191.229C122.375 182.158 115.022 174.804 105.951 174.804C96.8802 174.804 89.5268 182.158 89.5268 191.229C89.5268 200.299 96.8802 207.653 105.951 207.653Z" fill="#E8A825"/>
<path d="M98.2661 198.315L99.9282 196.268C98.8381 195.377 98.0156 194.202 97.5513 192.873L99.1329 191.908C99.5427 193.168 100.306 194.285 101.331 195.125C102.779 196.295 104.414 196.251 105.352 195.125C106.291 193.999 106.023 192.685 105.022 190.862C103.61 188.369 103.092 186.394 104.512 184.607C105.933 182.82 108.087 182.623 110.213 183.83L111.867 181.783L113.127 182.802L111.536 184.759C112.45 185.52 113.159 186.496 113.6 187.601L112.027 188.566C111.627 187.484 110.938 186.532 110.035 185.813C108.471 184.545 107.131 185.009 106.46 185.813C105.567 186.868 105.933 188.003 107.095 190.156C108.498 192.694 108.694 194.624 107.238 196.411C106.525 197.271 105.52 197.837 104.415 198.002C103.31 198.167 102.184 197.919 101.251 197.305L99.5172 199.369L98.2661 198.315Z" fill="#F8C244"/>
<path d="M222.86 100.261C233.5 100.261 242.125 91.6354 242.125 80.9952C242.125 70.355 233.5 61.7294 222.86 61.7294C212.219 61.7294 203.594 70.355 203.594 80.9952C203.594 91.6354 212.219 100.261 222.86 100.261Z" fill="#F8C244"/>
<path d="M222.86 97.4104C231.93 97.4104 239.284 90.0571 239.284 80.9862C239.284 71.9154 231.93 64.562 222.86 64.562C213.789 64.562 206.435 71.9154 206.435 80.9862C206.435 90.0571 213.789 97.4104 222.86 97.4104Z" fill="#E8A825"/>
<path d="M223.843 91.3966L223.217 88.8409C221.846 89.1693 220.41 89.1106 219.071 88.6711L219.267 86.8214C220.517 87.2592 221.866 87.3305 223.154 87.0269C224.942 86.5891 225.925 85.2398 225.576 83.8189C225.228 82.3981 224.039 81.7994 222.002 81.4956C219.169 81.1024 217.293 80.325 216.756 78.1268C216.22 75.9285 217.346 74.0699 219.589 73.1227L218.964 70.567L220.536 70.1827L221.135 72.6312C222.295 72.3657 223.502 72.3965 224.647 72.7205L224.432 74.5703C223.33 74.2278 222.155 74.1969 221.037 74.4809C219.08 74.9545 218.633 76.2681 218.883 77.3136C219.205 78.6272 220.304 79.1008 222.726 79.4314C225.594 79.8603 227.194 80.8612 227.774 83.113C228.02 84.2019 227.855 85.3431 227.31 86.3177C226.766 87.2924 225.881 88.0317 224.825 88.3941L225.469 91.0749L223.843 91.3966Z" fill="#F8C244"/>
<path d="M194.72 121.412C201.073 125.429 208.544 127.308 216.042 126.774C214.066 133.638 212.959 140.723 212.744 147.863C212.616 149.08 212.801 150.31 213.28 151.437C214.093 152.983 215.854 153.769 217.534 154.243C220.535 155.092 223.674 155.35 226.774 155.002C225.643 149.102 224.92 143.13 224.611 137.131C224.468 132.243 224.879 127.373 225.004 122.494C225.058 120.411 225.46 117.713 225.004 115.675C224.549 113.638 222.323 112.53 220.929 111.207C218.704 109.071 217.051 106.41 216.122 103.469C215.533 101.831 215.406 100.063 215.756 98.3576C216.274 96.356 217.739 94.7296 218.436 92.7906C219.133 90.8515 218.722 88.1171 216.721 87.5631C215.202 87.1431 213.343 88.1975 212.083 87.2324C211.636 86.8839 211.368 86.3388 210.894 86.0082C210.457 85.7818 209.957 85.7064 209.472 85.7936C208.987 85.8809 208.545 86.126 208.214 86.4907C207.574 87.2459 207.066 88.104 206.712 89.0285C204.763 92.7474 201.773 95.8182 198.107 97.8662C195.806 99.1943 193.378 100.29 190.86 101.137C188.966 101.807 185.972 101.968 184.346 103.058C182.487 104.3 184.015 107.437 184.837 109.438C186.878 114.317 190.317 118.483 194.72 121.412Z" fill="url(#paint9_linear)"/>
<path d="M222.234 153.054C222.421 153.278 222.665 153.448 222.94 153.546C226.854 155.279 231.286 155.333 235.575 155.333C235.857 155.36 236.14 155.314 236.398 155.199C236.622 155.036 236.781 154.797 236.845 154.526C236.909 154.256 236.874 153.971 236.746 153.725C236.464 153.246 236.06 152.851 235.575 152.581C234.326 151.757 233.011 151.037 231.644 150.427C230.562 149.954 229.347 149.435 228.909 148.345C228.741 147.763 228.639 147.163 228.605 146.558C228.194 144.047 224.254 145.28 222.931 146.558C221.752 147.764 221.349 151.794 222.234 153.054Z" fill="#FCAB9A"/>
<path d="M184.408 94.2828C184.408 94.2828 181.96 106.793 192.737 112.03C200.207 115.657 209.25 116.319 217.418 116.632C218.856 116.685 220.465 116.542 221.886 116.739C224.727 117.105 223.905 118.901 223.566 121.287C222.797 127.328 221.975 133.357 221.099 139.373C220.437 142.507 220.483 145.749 221.233 148.863L229.821 147.711C230.734 138.951 232.375 130.284 234.727 121.796C235.745 118.115 237.157 113.531 235.048 110.019C232.967 106.864 230.015 104.38 226.55 102.87L204.961 92.7994L184.408 94.2828Z" fill="#473F47"/>
<path d="M213.941 60.7553C216.354 59.7723 219.106 58.8609 221.51 59.8617C222.119 60.0865 222.631 60.5162 222.958 61.077C223.157 61.6301 223.168 62.2332 222.99 62.7935C222.813 63.3538 222.456 63.8401 221.975 64.1777C220.982 64.8198 219.864 65.2433 218.695 65.4198C216.622 65.8934 214.567 66.4743 212.539 67.1445C212.19 67.2427 211.857 67.3869 211.547 67.5734C211.206 67.8249 210.905 68.1261 210.653 68.467C208.783 70.7009 206.643 72.694 204.282 74.4004C204.925 73.9358 204.693 69.6733 204.863 68.7887C204.919 68.2461 205.107 67.7253 205.409 67.2709C205.71 66.8165 206.118 66.442 206.596 66.1794C209.232 64.4994 210.966 61.9706 213.941 60.7553Z" fill="#FCAB9A"/>
<path d="M208.053 38.4513C208.374 39.2019 209.17 39.7202 209.357 40.5333C209.545 41.3465 208.803 42.3741 208.339 43.2945C207.722 44.5277 207.677 45.9753 207.052 47.2442C206.941 47.5195 206.752 47.7558 206.507 47.9233C206.277 48.0307 206.028 48.0915 205.774 48.1021C204.786 48.1816 203.792 48.1124 202.825 47.8965C202.649 47.8157 202.453 47.7908 202.262 47.825C202.101 47.9341 201.986 48.1 201.941 48.2897C201.057 50.6807 200.769 53.2507 201.101 55.778C201.208 56.6001 201.315 57.6188 200.645 58.1192C200.409 58.2886 200.13 58.3877 199.841 58.4052C197.919 58.6196 196.266 57.0112 195.23 55.4206C194.284 53.9736 193.513 52.4199 192.933 50.7918C192.736 50.3214 192.63 49.8181 192.62 49.3084C192.657 48.7072 192.808 48.1187 193.067 47.5748C193.863 45.6073 194.461 43.566 194.854 41.4805C195.346 38.7998 195.56 35.9939 196.838 33.6348C197.26 32.8248 197.926 32.1681 198.742 31.7583C199.682 31.4595 200.686 31.4224 201.646 31.651C203.629 31.777 205.487 32.66 206.837 34.1174C207.195 34.6446 207.642 37.513 208.053 38.4513Z" fill="#FCAB9A"/>
<path d="M203.495 94.971C202.094 95.8955 200.509 96.5053 198.849 96.7582C196.486 97.3046 194.215 98.1863 192.102 99.3764C190.833 100.136 189.975 101.432 188.858 102.397C187.971 103.148 186.928 103.694 185.805 103.995C184.682 104.296 183.506 104.345 182.362 104.139C182.255 103.826 182.139 103.505 182.031 103.183C178.457 92.46 179.029 80.8433 180.092 69.7538C180.602 64.4995 184.73 47.6732 192.656 49.6302C192.656 49.6302 200.171 54.8219 202.182 58.3695C204.014 61.649 206.65 64.2851 206.194 68.333C205.533 74.0252 202.486 79.0561 202.191 84.9806C202.086 85.8387 202.19 86.7094 202.495 87.5184C203.04 88.6712 204.326 89.3592 204.863 90.503C205.153 91.295 205.176 92.1601 204.93 92.9667C204.683 93.7733 204.179 94.4771 203.495 94.971Z" fill="white"/>
<path d="M191.494 85.8563C191.665 86.6598 191.967 87.4296 192.388 88.135C193.529 89.5815 195.177 90.5399 196.999 90.8158C199.06 91.3152 201.149 91.6941 203.254 91.9506C206.364 92.3438 208.857 93.7378 212.101 92.5225C214.327 91.5709 216.309 90.1292 217.9 88.3047C218.401 87.7775 218.794 86.7767 218.168 86.4461C217.994 86.3805 217.809 86.3501 217.623 86.3567H212.217C212.11 85.9278 212.422 85.5168 212.637 85.1325C212.851 84.7483 212.941 84.1585 212.547 83.944C212.154 83.7296 211.824 84.0066 211.52 84.221C209.997 85.2542 208.249 85.9063 206.421 86.1224C204.594 86.3386 202.742 86.1125 201.02 85.4631C197.839 84.2568 197.598 80.2982 197.133 77.2689C197.129 76.8916 197.035 76.5208 196.859 76.1868C196.684 75.8529 196.432 75.5653 196.123 75.3477C195.871 75.2549 195.603 75.2135 195.334 75.2257C195.066 75.238 194.802 75.3038 194.56 75.4192C192.713 75.9976 191.151 77.2475 190.181 78.922C189.386 80.6109 191.003 83.9887 191.494 85.8563Z" fill="#FCAB9A"/>
<path d="M193.184 60.2281C193.184 60.2281 198.438 74.0073 199.439 75.0171C200.439 76.0268 189.663 82.273 189.663 82.273C189.663 82.273 182.46 68.8692 182.728 63.0608C182.997 57.2525 189.136 54.7594 193.184 60.2281Z" fill="white"/>
<path d="M208.625 34.1441C206.954 36.6551 205.417 35.136 203.513 33.4561L204.067 35.8151L200.806 37.3074L199.019 35.6275C199.447 37.6202 198.67 39.6486 198.027 41.5877C197.079 44.4383 196.418 47.5659 197.383 50.4075C198.17 52.7308 200.01 54.7861 199.948 57.2345L196.141 53.6602C195.25 52.72 194.215 51.9268 193.076 51.31C192.514 51.0148 191.893 50.8503 191.259 50.8286C190.624 50.8069 189.993 50.9287 189.412 51.1849C188.902 51.5 188.437 51.8816 188.027 52.3198C186.079 54.2499 183.854 56.0639 182.719 58.6285C181.719 60.8714 181.745 63.6863 180.039 65.6432C177.715 68.3865 173.292 67.6627 170.084 66.0632C167.866 65.0604 165.929 63.5257 164.445 61.5953C163.698 60.5188 163.17 59.3056 162.891 58.0249C162.613 56.7443 162.589 55.4212 162.823 54.1316C163.056 52.8419 163.541 51.6108 164.25 50.5087C164.96 49.4067 165.879 48.4552 166.956 47.7088C167.767 47.1474 168.655 46.7078 169.593 46.4042C171.156 45.9038 172.988 45.6983 173.989 44.3936C175.178 42.8388 174.525 40.6316 174.597 38.6746C174.656 37.3953 175.049 36.1536 175.735 35.0723C176.422 33.991 177.378 33.1074 178.511 32.5088C181.665 30.8825 186.106 31.4455 188.179 28.5681C188.781 27.5049 189.312 26.4034 189.77 25.2708C191.673 21.6964 197.231 20.8743 200.109 23.7159C200.649 24.4157 201.327 24.9967 202.101 25.4227C202.704 25.6004 203.333 25.6729 203.96 25.6371C204.998 25.6182 206.024 25.8633 206.942 26.3494C207.859 26.8355 208.638 27.5467 209.205 28.4162C210.037 29.8906 209.67 32.482 208.785 33.9118L208.625 34.1441Z" fill="#FC682D"/>
<path d="M221.591 150.418C220.945 151.461 220.682 152.697 220.849 153.912C220.877 154.303 221.027 154.675 221.278 154.976C221.553 155.207 221.882 155.367 222.234 155.44C226.693 156.815 231.329 157.532 235.995 157.567C236.601 157.604 237.208 157.522 237.783 157.326C238.067 157.227 238.321 157.058 238.523 156.835C238.724 156.611 238.866 156.341 238.935 156.048C238.972 155.642 238.898 155.235 238.721 154.868C238.144 153.507 237.05 152.43 235.679 151.874C234.309 151.318 232.774 151.328 231.411 151.902L231.251 151.973C230.782 152.239 230.288 152.458 229.776 152.625C229.268 152.714 228.748 152.714 228.239 152.625C226.924 152.474 225.624 152.214 224.352 151.848C223.407 151.421 222.485 150.944 221.591 150.418Z" fill="#473F47"/>
</g>
<defs>
<linearGradient id="paint0_linear" x1="159.504" y1="138.489" x2="156.341" y2="305.278" gradientUnits="userSpaceOnUse">
<stop offset="0.01"/>
<stop offset="0.13" stop-opacity="0.69"/>
<stop offset="0.25" stop-opacity="0.32"/>
<stop offset="1" stop-opacity="0"/>
</linearGradient>
<linearGradient id="paint1_linear" x1="37007.4" y1="-7649.41" x2="18777.6" y2="-32266.1" gradientUnits="userSpaceOnUse">
<stop offset="0.01"/>
<stop offset="0.13" stop-opacity="0.69"/>
<stop offset="0.25" stop-opacity="0.32"/>
<stop offset="1" stop-opacity="0"/>
</linearGradient>
<linearGradient id="paint2_linear" x1="29391.2" y1="-6918.01" x2="8833.51" y2="-27759.6" gradientUnits="userSpaceOnUse">
<stop offset="0.01"/>
<stop offset="0.13" stop-opacity="0.69"/>
<stop offset="0.25" stop-opacity="0.32"/>
<stop offset="1" stop-opacity="0"/>
</linearGradient>
<linearGradient id="paint3_linear" x1="5656.99" y1="7167.56" x2="125.392" y2="8770.22" gradientUnits="userSpaceOnUse">
<stop offset="0.01"/>
<stop offset="0.13" stop-opacity="0.69"/>
<stop offset="0.25" stop-opacity="0.32"/>
<stop offset="1" stop-opacity="0"/>
</linearGradient>
<linearGradient id="paint4_linear" x1="20626.7" y1="-6018.78" x2="37063.9" y2="-29231.7" gradientUnits="userSpaceOnUse">
<stop offset="0.01"/>
<stop offset="0.13" stop-opacity="0.69"/>
<stop offset="0.25" stop-opacity="0.32"/>
<stop offset="1" stop-opacity="0"/>
</linearGradient>
<linearGradient id="paint5_linear" x1="47455.2" y1="-13479.1" x2="33167.8" y2="10019" gradientUnits="userSpaceOnUse">
<stop offset="0.01"/>
<stop offset="0.13" stop-opacity="0.69"/>
<stop offset="0.25" stop-opacity="0.32"/>
<stop offset="1" stop-opacity="0"/>
</linearGradient>
<linearGradient id="paint6_linear" x1="18839.1" y1="-4869.93" x2="18891.6" y2="-1394.99" gradientUnits="userSpaceOnUse">
<stop offset="0.01"/>
<stop offset="0.13" stop-opacity="0.69"/>
<stop offset="0.25" stop-opacity="0.32"/>
<stop offset="1" stop-opacity="0"/>
</linearGradient>
<linearGradient id="paint7_linear" x1="4179.02" y1="-3108.23" x2="5151.36" y2="-896.103" gradientUnits="userSpaceOnUse">
<stop offset="0.01"/>
<stop offset="0.13" stop-opacity="0.69"/>
<stop offset="0.25" stop-opacity="0.32"/>
<stop offset="1" stop-opacity="0"/>
</linearGradient>
<linearGradient id="paint8_linear" x1="2488.4" y1="3826.61" x2="1079.71" y2="3691.78" gradientUnits="userSpaceOnUse">
<stop offset="0.01"/>
<stop offset="0.13" stop-opacity="0.69"/>
<stop offset="0.25" stop-opacity="0.32"/>
<stop offset="1" stop-opacity="0"/>
</linearGradient>
<linearGradient id="paint9_linear" x1="265.52" y1="42.8209" x2="101.456" y2="278.381" gradientUnits="userSpaceOnUse">
<stop offset="0.01"/>
<stop offset="0.08" stop-opacity="0.69"/>
<stop offset="0.21" stop-opacity="0.32"/>
<stop offset="1" stop-opacity="0"/>
</linearGradient>
<clipPath id="clip0">
<rect width="317.105" height="239" fill="white"/>
</clipPath>
</defs>
</svg>
